<svg width="165" height="26" viewBox="0 0 165 26" fill="none" xmlns="http://www.w3.org/2000/svg">
<g filter="url(#filter0_d)">
<path d="M16.4746 3.32422H11.9043V16H10.0391V3.32422H5.47852V1.78125H16.4746V3.32422ZM20.1074 6.71289C20.9082 5.72982 21.9499 5.23828 23.2324 5.23828C25.4655 5.23828 26.5918 6.49805 26.6113 9.01758V16H24.8047V9.00781C24.7982 8.24609 24.6224 7.68294 24.2773 7.31836C23.9388 6.95378 23.4082 6.77148 22.6855 6.77148C22.0996 6.77148 21.5853 6.92773 21.1426 7.24023C20.6999 7.55273 20.3548 7.96289 20.1074 8.4707V16H18.3008V1H20.1074V6.71289ZM31.2793 16H29.4727V5.43359H31.2793V16ZM29.3262 2.63086C29.3262 2.33789 29.4141 2.09049 29.5898 1.88867C29.7721 1.68685 30.0391 1.58594 30.3906 1.58594C30.7422 1.58594 31.0091 1.68685 31.1914 1.88867C31.3737 2.09049 31.4648 2.33789 31.4648 2.63086C31.4648 2.92383 31.3737 3.16797 31.1914 3.36328C31.0091 3.55859 30.7422 3.65625 30.3906 3.65625C30.0391 3.65625 29.7721 3.55859 29.5898 3.36328C29.4141 3.16797 29.3262 2.92383 29.3262 2.63086ZM40.332 13.1973C40.332 12.709 40.1465 12.3314 39.7754 12.0645C39.4108 11.791 38.7695 11.5566 37.8516 11.3613C36.9401 11.166 36.2142 10.9316 35.6738 10.6582C35.14 10.3848 34.7428 10.0592 34.4824 9.68164C34.2285 9.30404 34.1016 8.85482 34.1016 8.33398C34.1016 7.4681 34.4661 6.73568 35.1953 6.13672C35.931 5.53776 36.8685 5.23828 38.0078 5.23828C39.2057 5.23828 40.1758 5.54753 40.918 6.16602C41.6667 6.78451 42.041 7.57552 42.041 8.53906H40.2246C40.2246 8.04427 40.013 7.61784 39.5898 7.25977C39.1732 6.90169 38.6458 6.72266 38.0078 6.72266C37.3503 6.72266 36.8359 6.86589 36.4648 7.15234C36.0938 7.4388 35.9082 7.81315 35.9082 8.27539C35.9082 8.71159 36.0807 9.04036 36.4258 9.26172C36.7708 9.48307 37.3926 9.69466 38.291 9.89648C39.196 10.0983 39.9284 10.3392 40.4883 10.6191C41.0482 10.8991 41.4616 11.2376 41.7285 11.6348C42.002 12.0254 42.1387 12.5039 42.1387 13.0703C42.1387 14.0143 41.7611 14.7728 41.0059 15.3457C40.2507 15.9121 39.2708 16.1953 38.0664 16.1953C37.2201 16.1953 36.4714 16.0456 35.8203 15.7461C35.1693 15.4466 34.6582 15.0299 34.2871 14.4961C33.9225 13.9557 33.7402 13.373 33.7402 12.748H35.5469C35.5794 13.3535 35.8203 13.8353 36.2695 14.1934C36.7253 14.5449 37.3242 14.7207 38.0664 14.7207C38.75 14.7207 39.2969 14.584 39.707 14.3105C40.1237 14.0306 40.332 13.6595 40.332 13.1973ZM51.416 16H49.6094V5.43359H51.416V16ZM49.4629 2.63086C49.4629 2.33789 49.5508 2.09049 49.7266 1.88867C49.9089 1.68685 50.1758 1.58594 50.5273 1.58594C50.8789 1.58594 51.1458 1.68685 51.3281 1.88867C51.5104 2.09049 51.6016 2.33789 51.6016 2.63086C51.6016 2.92383 51.5104 3.16797 51.3281 3.36328C51.1458 3.55859 50.8789 3.65625 50.5273 3.65625C50.1758 3.65625 49.9089 3.55859 49.7266 3.36328C49.5508 3.16797 49.4629 2.92383 49.4629 2.63086ZM60.4688 13.1973C60.4688 12.709 60.2832 12.3314 59.9121 12.0645C59.5475 11.791 58.9062 11.5566 57.9883 11.3613C57.0768 11.166 56.3509 10.9316 55.8105 10.6582C55.2767 10.3848 54.8796 10.0592 54.6191 9.68164C54.3652 9.30404 54.2383 8.85482 54.2383 8.33398C54.2383 7.4681 54.6029 6.73568 55.332 6.13672C56.0677 5.53776 57.0052 5.23828 58.1445 5.23828C59.3424 5.23828 60.3125 5.54753 61.0547 6.16602C61.8034 6.78451 62.1777 7.57552 62.1777 8.53906H60.3613C60.3613 8.04427 60.1497 7.61784 59.7266 7.25977C59.3099 6.90169 58.7826 6.72266 58.1445 6.72266C57.487 6.72266 56.9727 6.86589 56.6016 7.15234C56.2305 7.4388 56.0449 7.81315 56.0449 8.27539C56.0449 8.71159 56.2174 9.04036 56.5625 9.26172C56.9076 9.48307 57.5293 9.69466 58.4277 9.89648C59.3327 10.0983 60.0651 10.3392 60.625 10.6191C61.1849 10.8991 61.5983 11.2376 61.8652 11.6348C62.1387 12.0254 62.2754 12.5039 62.2754 13.0703C62.2754 14.0143 61.8978 14.7728 61.1426 15.3457C60.3874 15.9121 59.4076 16.1953 58.2031 16.1953C57.3568 16.1953 56.6081 16.0456 55.957 15.7461C55.306 15.4466 54.7949 15.0299 54.4238 14.4961C54.0592 13.9557 53.877 13.373 53.877 12.748H55.6836C55.7161 13.3535 55.957 13.8353 56.4062 14.1934C56.862 14.5449 57.4609 14.7207 58.2031 14.7207C58.8867 14.7207 59.4336 14.584 59.8438 14.3105C60.2604 14.0306 60.4688 13.6595 60.4688 13.1973ZM76.1133 16C76.0091 15.7917 75.9245 15.4206 75.8594 14.8867C75.0195 15.7591 74.0169 16.1953 72.8516 16.1953C71.8099 16.1953 70.9538 15.9023 70.2832 15.3164C69.6191 14.724 69.2871 13.9753 69.2871 13.0703C69.2871 11.9701 69.7038 11.1172 70.5371 10.5117C71.377 9.89974 72.5553 9.59375 74.0723 9.59375H75.8301V8.76367C75.8301 8.13216 75.6413 7.63086 75.2637 7.25977C74.8861 6.88216 74.3294 6.69336 73.5938 6.69336C72.9492 6.69336 72.4089 6.85612 71.9727 7.18164C71.5365 7.50716 71.3184 7.90104 71.3184 8.36328H69.502C69.502 7.83594 69.6875 7.32812 70.0586 6.83984C70.4362 6.34505 70.944 5.95443 71.582 5.66797C72.2266 5.38151 72.9329 5.23828 73.7012 5.23828C74.9186 5.23828 75.8724 5.54427 76.5625 6.15625C77.2526 6.76172 77.6107 7.59831 77.6367 8.66602V13.5293C77.6367 14.4993 77.7604 15.2708 78.0078 15.8438V16H76.1133ZM73.1152 14.623C73.6816 14.623 74.2188 14.4766 74.7266 14.1836C75.2344 13.8906 75.6022 13.5098 75.8301 13.041V10.873H74.4141C72.2005 10.873 71.0938 11.5208 71.0938 12.8164C71.0938 13.3828 71.2826 13.8255 71.6602 14.1445C72.0378 14.4635 72.5228 14.623 73.1152 14.623ZM89.668 14.7207C90.3125 14.7207 90.8757 14.5254 91.3574 14.1348C91.8392 13.7441 92.1061 13.2559 92.1582 12.6699H93.8672C93.8346 13.2754 93.6263 13.8516 93.2422 14.3984C92.8581 14.9453 92.3438 15.3815 91.6992 15.707C91.0612 16.0326 90.3841 16.1953 89.668 16.1953C88.2292 16.1953 87.0833 15.7168 86.2305 14.7598C85.3841 13.7962 84.9609 12.4811 84.9609 10.8145V10.5117C84.9609 9.48307 85.1497 8.56836 85.5273 7.76758C85.9049 6.9668 86.4453 6.34505 87.1484 5.90234C87.8581 5.45964 88.6947 5.23828 89.6582 5.23828C90.8431 5.23828 91.8262 5.5931 92.6074 6.30273C93.3952 7.01237 93.8151 7.93359 93.8672 9.06641H92.1582C92.1061 8.38281 91.8457 7.82292 91.377 7.38672C90.9147 6.94401 90.3418 6.72266 89.6582 6.72266C88.7402 6.72266 88.0273 7.05469 87.5195 7.71875C87.0182 8.3763 86.7676 9.33008 86.7676 10.5801V10.9219C86.7676 12.1393 87.0182 13.0768 87.5195 13.7344C88.0208 14.3919 88.737 14.7207 89.668 14.7207ZM95.4199 10.6191C95.4199 9.58398 95.6217 8.65299 96.0254 7.82617C96.4355 6.99935 97.002 6.36133 97.7246 5.91211C98.4538 5.46289 99.2839 5.23828 100.215 5.23828C101.654 5.23828 102.816 5.73633 103.701 6.73242C104.593 7.72852 105.039 9.05339 105.039 10.707V10.834C105.039 11.8626 104.84 12.7871 104.443 13.6074C104.053 14.4212 103.49 15.056 102.754 15.5117C102.025 15.9674 101.185 16.1953 100.234 16.1953C98.8021 16.1953 97.64 15.6973 96.748 14.7012C95.8626 13.7051 95.4199 12.3867 95.4199 10.7461V10.6191ZM97.2363 10.834C97.2363 12.0059 97.5065 12.9466 98.0469 13.6562C98.5938 14.3659 99.3229 14.7207 100.234 14.7207C101.152 14.7207 101.882 14.3626 102.422 13.6465C102.962 12.9238 103.232 11.9147 103.232 10.6191C103.232 9.46029 102.956 8.52279 102.402 7.80664C101.855 7.08398 101.126 6.72266 100.215 6.72266C99.3229 6.72266 98.6035 7.07747 98.0566 7.78711C97.5098 8.49674 97.2363 9.51237 97.2363 10.834ZM106.826 10.6191C106.826 9.58398 107.028 8.65299 107.432 7.82617C107.842 6.99935 108.408 6.36133 109.131 5.91211C109.86 5.46289 110.69 5.23828 111.621 5.23828C113.06 5.23828 114.222 5.73633 115.107 6.73242C115.999 7.72852 116.445 9.05339 116.445 10.707V10.834C116.445 11.8626 116.247 12.7871 115.85 13.6074C115.459 14.4212 114.896 15.056 114.16 15.5117C113.431 15.9674 112.591 16.1953 111.641 16.1953C110.208 16.1953 109.046 15.6973 108.154 14.7012C107.269 13.7051 106.826 12.3867 106.826 10.7461V10.6191ZM108.643 10.834C108.643 12.0059 108.913 12.9466 109.453 13.6562C110 14.3659 110.729 14.7207 111.641 14.7207C112.559 14.7207 113.288 14.3626 113.828 13.6465C114.368 12.9238 114.639 11.9147 114.639 10.6191C114.639 9.46029 114.362 8.52279 113.809 7.80664C113.262 7.08398 112.533 6.72266 111.621 6.72266C110.729 6.72266 110.01 7.07747 109.463 7.78711C108.916 8.49674 108.643 9.51237 108.643 10.834ZM120.674 16H118.867V1H120.674V16ZM137.48 10.834C137.48 12.4486 137.109 13.7474 136.367 14.7305C135.625 15.707 134.629 16.1953 133.379 16.1953C132.044 16.1953 131.012 15.7233 130.283 14.7793L130.195 16H128.535V1H130.342V6.5957C131.071 5.69076 132.077 5.23828 133.359 5.23828C134.642 5.23828 135.648 5.72331 136.377 6.69336C137.113 7.66341 137.48 8.99154 137.48 10.6777V10.834ZM135.674 10.6289C135.674 9.39844 135.436 8.44792 134.961 7.77734C134.486 7.10677 133.802 6.77148 132.91 6.77148C131.719 6.77148 130.863 7.32487 130.342 8.43164V13.002C130.895 14.1087 131.758 14.6621 132.93 14.6621C133.796 14.6621 134.469 14.3268 134.951 13.6562C135.433 12.9857 135.674 11.9766 135.674 10.6289ZM139.287 10.6191C139.287 9.58398 139.489 8.65299 139.893 7.82617C140.303 6.99935 140.869 6.36133 141.592 5.91211C142.321 5.46289 143.151 5.23828 144.082 5.23828C145.521 5.23828 146.683 5.73633 147.568 6.73242C148.46 7.72852 148.906 9.05339 148.906 10.707V10.834C148.906 11.8626 148.708 12.7871 148.311 13.6074C147.92 14.4212 147.357 15.056 146.621 15.5117C145.892 15.9674 145.052 16.1953 144.102 16.1953C142.669 16.1953 141.507 15.6973 140.615 14.7012C139.73 13.7051 139.287 12.3867 139.287 10.7461V10.6191ZM141.104 10.834C141.104 12.0059 141.374 12.9466 141.914 13.6562C142.461 14.3659 143.19 14.7207 144.102 14.7207C145.02 14.7207 145.749 14.3626 146.289 13.6465C146.829 12.9238 147.1 11.9147 147.1 10.6191C147.1 9.46029 146.823 8.52279 146.27 7.80664C145.723 7.08398 144.993 6.72266 144.082 6.72266C143.19 6.72266 142.471 7.07747 141.924 7.78711C141.377 8.49674 141.104 9.51237 141.104 10.834ZM154.502 9.29102L156.846 5.43359H158.955L155.498 10.6582L159.062 16H156.973L154.531 12.0449L152.09 16H149.99L153.555 10.6582L150.098 5.43359H152.188L154.502 9.29102Z" fill="black"/>
<path d="M16.4746 3.32422V4.32422H17.4746V3.32422H16.4746ZM11.9043 3.32422V2.32422H10.9043V3.32422H11.9043ZM11.9043 16V17H12.9043V16H11.9043ZM10.0391 16H9.03906V17H10.0391V16ZM10.0391 3.32422H11.0391V2.32422H10.0391V3.32422ZM5.47852 3.32422H4.47852V4.32422H5.47852V3.32422ZM5.47852 1.78125V0.78125H4.47852V1.78125H5.47852ZM16.4746 1.78125H17.4746V0.78125H16.4746V1.78125ZM16.4746 2.32422H11.9043V4.32422H16.4746V2.32422ZM10.9043 3.32422V16H12.9043V3.32422H10.9043ZM11.9043 15H10.0391V17H11.9043V15ZM11.0391 16V3.32422H9.03906V16H11.0391ZM10.0391 2.32422H5.47852V4.32422H10.0391V2.32422ZM6.47852 3.32422V1.78125H4.47852V3.32422H6.47852ZM5.47852 2.78125H16.4746V0.78125H5.47852V2.78125ZM15.4746 1.78125V3.32422H17.4746V1.78125H15.4746ZM20.1074 6.71289H19.1074V9.52392L20.8827 7.34445L20.1074 6.71289ZM26.6113 9.01758L27.6114 9.01758L27.6113 9.00983L26.6113 9.01758ZM26.6113 16V17H27.6113V16H26.6113ZM24.8047 16H23.8047V17H24.8047V16ZM24.8047 9.00781H25.8047L25.8047 8.99927L24.8047 9.00781ZM24.2773 7.31836L23.5445 7.99884L23.5511 8.00574L24.2773 7.31836ZM20.1074 8.4707L19.2084 8.03273L19.1074 8.24007V8.4707H20.1074ZM20.1074 16V17H21.1074V16H20.1074ZM18.3008 16H17.3008V17H18.3008V16ZM18.3008 1V0H17.3008V1H18.3008ZM20.1074 1H21.1074V0H20.1074V1ZM20.8827 7.34445C21.4911 6.59762 22.2465 6.23828 23.2324 6.23828V4.23828C21.6532 4.23828 20.3253 4.86202 19.3321 6.08133L20.8827 7.34445ZM23.2324 6.23828C24.1609 6.23828 24.689 6.4946 25.0065 6.84962C25.344 7.22711 25.6026 7.89266 25.6114 9.02533L27.6113 9.00983C27.6005 7.62297 27.2863 6.39887 26.4974 5.51659C25.6886 4.61185 24.537 4.23828 23.2324 4.23828V6.23828ZM25.6113 9.01758V16H27.6113V9.01758H25.6113ZM26.6113 15H24.8047V17H26.6113V15ZM25.8047 16V9.00781H23.8047V16H25.8047ZM25.8047 8.99927C25.7971 8.11209 25.5936 7.25436 25.0036 6.63097L23.5511 8.00574C23.6512 8.11153 23.7993 8.3801 23.8047 9.01636L25.8047 8.99927ZM25.0101 6.63791C24.4103 5.99195 23.5589 5.77148 22.6855 5.77148V7.77148C23.2575 7.77148 23.4673 7.91561 23.5446 7.99881L25.0101 6.63791ZM22.6855 5.77148C21.9108 5.77148 21.1912 5.98187 20.5659 6.42327L21.7193 8.0572C21.9794 7.8736 22.2884 7.77148 22.6855 7.77148V5.77148ZM20.5659 6.42327C19.9796 6.83712 19.5264 7.38012 19.2084 8.03273L21.0064 8.90867C21.1833 8.54566 21.4201 8.26835 21.7193 8.0572L20.5659 6.42327ZM19.1074 8.4707V16H21.1074V8.4707H19.1074ZM20.1074 15H18.3008V17H20.1074V15ZM19.3008 16V1H17.3008V16H19.3008ZM18.3008 2H20.1074V0H18.3008V2ZM19.1074 1V6.71289H21.1074V1H19.1074ZM31.2793 16V17H32.2793V16H31.2793ZM29.4727 16H28.4727V17H29.4727V16ZM29.4727 5.43359V4.43359H28.4727V5.43359H29.4727ZM31.2793 5.43359H32.2793V4.43359H31.2793V5.43359ZM29.5898 1.88867L28.8477 1.21839L28.8417 1.22508L28.8358 1.23189L29.5898 1.88867ZM29.5898 3.36328L28.8465 4.03225L28.8526 4.03898L28.8588 4.0456L29.5898 3.36328ZM31.2793 15H29.4727V17H31.2793V15ZM30.4727 16V5.43359H28.4727V16H30.4727ZM29.4727 6.43359H31.2793V4.43359H29.4727V6.43359ZM30.2793 5.43359V16H32.2793V5.43359H30.2793ZM30.3262 2.63086C30.3262 2.58532 30.3328 2.56486 30.3344 2.56035C30.3355 2.55717 30.3368 2.55366 30.3439 2.54545L28.8358 1.23189C28.486 1.63352 28.3262 2.12108 28.3262 2.63086H30.3262ZM30.3319 2.55896C30.3233 2.56849 30.3127 2.57779 30.3013 2.58549C30.29 2.59308 30.2821 2.59637 30.2804 2.59701C30.278 2.5979 30.3086 2.58594 30.3906 2.58594V0.585938C29.8441 0.585938 29.2715 0.749242 28.8477 1.21839L30.3319 2.55896ZM30.3906 2.58594C30.4727 2.58594 30.5032 2.5979 30.5009 2.59701C30.4992 2.59637 30.4912 2.59308 30.48 2.58549C30.4685 2.57779 30.4579 2.56849 30.4493 2.55896L31.9335 1.21839C31.5098 0.749242 30.9372 0.585938 30.3906 0.585938V2.58594ZM30.4493 2.55896C30.4543 2.56451 30.4563 2.56769 30.4568 2.56853C30.4573 2.56931 30.4576 2.56994 30.4581 2.57129C30.4586 2.57267 30.4648 2.58929 30.4648 2.63086H32.4648C32.4648 2.11105 32.2952 1.61888 31.9335 1.21839L30.4493 2.55896ZM30.4648 2.63086C30.4648 2.67265 30.4586 2.68676 30.4596 2.68394C30.4599 2.68312 30.4608 2.68125 30.462 2.67934C30.4631 2.67748 30.4631 2.678 30.4604 2.68096L31.9225 4.0456C32.2949 3.64653 32.4648 3.1505 32.4648 2.63086H30.4648ZM30.4604 2.68096C30.4701 2.67054 30.4813 2.66117 30.4926 2.65384C30.4979 2.65037 30.5024 2.64788 30.5058 2.6462C30.5091 2.64453 30.511 2.64386 30.5109 2.64388C30.5101 2.64418 30.4759 2.65625 30.3906 2.65625V4.65625C30.9275 4.65625 31.4963 4.50215 31.9225 4.0456L30.4604 2.68096ZM30.3906 2.65625C30.3053 2.65625 30.2711 2.64418 30.2703 2.64388C30.2703 2.64386 30.2721 2.64453 30.2755 2.6462C30.2788 2.64788 30.2834 2.65037 30.2887 2.65384C30.2999 2.66117 30.3112 2.67054 30.3209 2.68096L28.8588 4.0456C29.2849 4.50215 29.8538 4.65625 30.3906 4.65625V2.65625ZM30.3331 2.69432C30.331 2.69198 30.3311 2.69166 30.332 2.69315C30.3329 2.69466 30.3332 2.69562 30.333 2.69497C30.3328 2.69461 30.3262 2.67662 30.3262 2.63086H28.3262C28.3262 3.14028 28.4861 3.63178 28.8465 4.03225L30.3331 2.69432ZM39.7754 12.0645L39.1754 12.8645L39.1834 12.8704L39.1915 12.8763L39.7754 12.0645ZM37.8516 11.3613L37.642 12.3391L37.6435 12.3394L37.8516 11.3613ZM35.6738 10.6582L35.2179 11.5483L35.2223 11.5505L35.6738 10.6582ZM34.4824 9.68164L33.6525 10.2397L33.6592 10.2494L34.4824 9.68164ZM35.1953 6.13672L34.5639 5.36123L34.5606 5.36399L35.1953 6.13672ZM40.918 6.16602L40.2778 6.93424L40.2811 6.93698L40.918 6.16602ZM42.041 8.53906V9.53906H43.041V8.53906H42.041ZM40.2246 8.53906H39.2246V9.53906H40.2246V8.53906ZM39.5898 7.25977L38.9381 8.01821L38.9439 8.02315L39.5898 7.25977ZM38.291 9.89648L38.0718 10.8722L38.0733 10.8725L38.291 9.89648ZM41.7285 11.6348L40.8986 12.1926L40.9039 12.2005L40.9093 12.2082L41.7285 11.6348ZM41.0059 15.3457L41.6059 16.1457L41.6102 16.1424L41.0059 15.3457ZM35.8203 15.7461L35.4024 16.6546L35.8203 15.7461ZM34.2871 14.4961L33.4581 15.0554L33.466 15.0669L34.2871 14.4961ZM33.7402 12.748V11.748H32.7402V12.748H33.7402ZM35.5469 12.748L36.5454 12.6944L36.4946 11.748H35.5469V12.748ZM36.2695 14.1934L35.6462 14.9753L35.6524 14.9803L35.6587 14.9851L36.2695 14.1934ZM39.707 14.3105L40.2617 15.1426L40.2647 15.1406L39.707 14.3105ZM41.332 13.1973C41.332 12.4129 41.0118 11.722 40.3593 11.2526L39.1915 12.8763C39.2811 12.9408 39.332 13.005 39.332 13.1973H41.332ZM40.3754 11.2645C39.8259 10.8523 39.0005 10.5834 38.0597 10.3832L37.6435 12.3394C38.5386 12.5299 38.9957 12.7297 39.1754 12.8645L40.3754 11.2645ZM38.0611 10.3835C37.1937 10.1977 36.5596 9.98568 36.1253 9.76594L35.2223 11.5505C35.8688 11.8776 36.6865 12.1344 37.642 12.3391L38.0611 10.3835ZM36.1297 9.76816C35.6992 9.54768 35.4477 9.31988 35.3056 9.11391L33.6592 10.2494C34.038 10.7986 34.5807 11.2219 35.218 11.5482L36.1297 9.76816ZM35.3123 9.12364C35.1847 8.93397 35.1016 8.68566 35.1016 8.33398H33.1016C33.1016 9.02397 33.2723 9.6741 33.6526 10.2396L35.3123 9.12364ZM35.1016 8.33398C35.1016 7.79665 35.3085 7.33787 35.8301 6.90945L34.5606 5.36399C33.6238 6.13348 33.1016 7.13954 33.1016 8.33398H35.1016ZM35.8267 6.9122C36.35 6.48614 37.0505 6.23828 38.0078 6.23828V4.23828C36.6865 4.23828 35.512 4.58938 34.5639 5.36123L35.8267 6.9122ZM38.0078 6.23828C39.0297 6.23828 39.7553 6.49881 40.2778 6.93424L41.5582 5.39779C40.5963 4.59625 39.3818 4.23828 38.0078 4.23828V6.23828ZM40.2811 6.93698C40.8019 7.36723 41.041 7.87652 41.041 8.53906H43.041C43.041 7.27452 42.5314 6.20178 41.5549 5.39505L40.2811 6.93698ZM42.041 7.53906H40.2246V9.53906H42.041V7.53906ZM41.2246 8.53906C41.2246 7.71254 40.8531 7.01876 40.2358 6.49638L38.9439 8.02315C39.1729 8.21691 39.2246 8.376 39.2246 8.53906H41.2246ZM40.2416 6.50135C39.6149 5.96273 38.8442 5.72266 38.0078 5.72266V7.72266C38.4475 7.72266 38.7315 7.84066 38.9381 8.01819L40.2416 6.50135ZM38.0078 5.72266C37.2163 5.72266 36.4582 5.89417 35.8538 6.36075L37.0759 7.94393C37.2136 7.8376 37.4843 7.72266 38.0078 7.72266V5.72266ZM35.8538 6.36075C35.2415 6.83341 34.9082 7.49816 34.9082 8.27539H36.9082C36.9082 8.12815 36.946 8.04419 37.0759 7.94393L35.8538 6.36075ZM34.9082 8.27539C34.9082 9.02603 35.2327 9.68446 35.8858 10.1034L36.9657 8.42002C36.9426 8.40518 36.9317 8.39458 36.9277 8.39033C36.924 8.38648 36.9234 8.38496 36.9231 8.38446C36.9227 8.38375 36.9195 8.37765 36.9161 8.36239C36.9125 8.34653 36.9082 8.31859 36.9082 8.27539H34.9082ZM35.8858 10.1034C36.3914 10.4278 37.1659 10.6687 38.0718 10.8722L38.5102 8.9208C37.6193 8.72066 37.1502 8.53838 36.9657 8.42002L35.8858 10.1034ZM38.0733 10.8725C38.933 11.0642 39.5799 11.283 40.0411 11.5136L40.9355 9.72471C40.2769 9.39541 39.459 9.1324 38.5087 8.92046L38.0733 10.8725ZM40.0411 11.5136C40.4927 11.7394 40.7532 11.9764 40.8986 12.1926L42.5585 11.0769C42.1699 10.4989 41.6036 10.0588 40.9355 9.72471L40.0411 11.5136ZM40.9093 12.2082C41.0443 12.4011 41.1387 12.6696 41.1387 13.0703H43.1387C43.1387 12.3382 42.9596 11.6497 42.5477 11.0613L40.9093 12.2082ZM41.1387 13.0703C41.1387 13.7 40.9087 14.1642 40.4015 14.549L41.6102 16.1424C42.6135 15.3813 43.1387 14.3287 43.1387 13.0703H41.1387ZM40.4059 14.5457C39.8664 14.9503 39.1146 15.1953 38.0664 15.1953V17.1953C39.427 17.1953 40.6349 16.8739 41.6059 16.1457L40.4059 14.5457ZM38.0664 15.1953C37.3385 15.1953 36.7366 15.0669 36.2382 14.8376L35.4024 16.6546C36.2061 17.0243 37.1016 17.1953 38.0664 17.1953V15.1953ZM36.2382 14.8376C35.7323 14.6049 35.3673 14.298 35.1082 13.9253L33.466 15.0669C33.9492 15.7619 34.6063 16.2884 35.4024 16.6546L36.2382 14.8376ZM35.1161 13.9368C34.8579 13.5541 34.7402 13.1649 34.7402 12.748H32.7402C32.7402 13.5812 32.9872 14.3573 33.4581 15.0554L35.1161 13.9368ZM33.7402 13.748H35.5469V11.748H33.7402V13.748ZM34.5483 12.8017C34.5952 13.6745 34.96 14.4283 35.6462 14.9753L36.8928 13.4114C36.6806 13.2422 36.5636 13.0325 36.5454 12.6944L34.5483 12.8017ZM35.6587 14.9851C36.3344 15.5064 37.1677 15.7207 38.0664 15.7207V13.7207C37.4807 13.7207 37.1161 13.5834 36.8803 13.4016L35.6587 14.9851ZM38.0664 15.7207C38.8736 15.7207 39.6351 15.5603 40.2617 15.1426L39.1523 13.4785C38.9586 13.6076 38.6264 13.7207 38.0664 13.7207V15.7207ZM40.2647 15.1406C40.9298 14.6938 41.332 14.0251 41.332 13.1973H39.332C39.332 13.2939 39.3176 13.3674 39.1493 13.4805L40.2647 15.1406ZM51.416 16V17H52.416V16H51.416ZM49.6094 16H48.6094V17H49.6094V16ZM49.6094 5.43359V4.43359H48.6094V5.43359H49.6094ZM51.416 5.43359H52.416V4.43359H51.416V5.43359ZM49.7266 1.88867L48.9845 1.21839L48.9784 1.22508L48.9725 1.23189L49.7266 1.88867ZM49.7266 3.36328L48.9833 4.03225L48.9893 4.03898L48.9955 4.0456L49.7266 3.36328ZM51.416 15H49.6094V17H51.416V15ZM50.6094 16V5.43359H48.6094V16H50.6094ZM49.6094 6.43359H51.416V4.43359H49.6094V6.43359ZM50.416 5.43359V16H52.416V5.43359H50.416ZM50.4629 2.63086C50.4629 2.58532 50.4695 2.56486 50.4711 2.56035C50.4722 2.55717 50.4735 2.55366 50.4806 2.54545L48.9725 1.23189C48.6227 1.63352 48.4629 2.12108 48.4629 2.63086H50.4629ZM50.4687 2.55896C50.4601 2.56849 50.4494 2.57779 50.438 2.58549C50.4267 2.59308 50.4188 2.59637 50.4171 2.59701C50.4147 2.5979 50.4453 2.58594 50.5273 2.58594V0.585938C49.9808 0.585938 49.4082 0.749242 48.9845 1.21839L50.4687 2.55896ZM50.5273 2.58594C50.6094 2.58594 50.6399 2.5979 50.6376 2.59701C50.6359 2.59637 50.6279 2.59308 50.6167 2.58549C50.6052 2.57779 50.5946 2.56849 50.586 2.55896L52.0702 1.21839C51.6465 0.749242 51.0739 0.585938 50.5273 0.585938V2.58594ZM50.586 2.55896C50.591 2.56451 50.593 2.56769 50.5936 2.56853C50.594 2.56931 50.5944 2.56994 50.5949 2.57129C50.5954 2.57267 50.6016 2.58929 50.6016 2.63086H52.6016C52.6016 2.11105 52.432 1.61888 52.0702 1.21839L50.586 2.55896ZM50.6016 2.63086C50.6016 2.67265 50.5953 2.68676 50.5964 2.68394C50.5967 2.68312 50.5975 2.68125 50.5987 2.67934C50.5999 2.67748 50.5998 2.678 50.5971 2.68096L52.0592 4.0456C52.4316 3.64653 52.6016 3.1505 52.6016 2.63086H50.6016ZM50.5971 2.68096C50.6068 2.67054 50.618 2.66117 50.6293 2.65384C50.6346 2.65037 50.6391 2.64788 50.6425 2.6462C50.6459 2.64453 50.6477 2.64386 50.6476 2.64388C50.6468 2.64418 50.6127 2.65625 50.5273 2.65625V4.65625C51.0642 4.65625 51.6331 4.50215 52.0592 4.0456L50.5971 2.68096ZM50.5273 2.65625C50.442 2.65625 50.4079 2.64418 50.4071 2.64388C50.407 2.64386 50.4088 2.64453 50.4122 2.6462C50.4156 2.64788 50.4201 2.65037 50.4254 2.65384C50.4367 2.66117 50.4479 2.67054 50.4576 2.68096L48.9955 4.0456C49.4216 4.50215 49.9905 4.65625 50.5273 4.65625V2.65625ZM50.4699 2.69432C50.4678 2.69198 50.4678 2.69166 50.4687 2.69315C50.4696 2.69466 50.4699 2.69562 50.4697 2.69497C50.4696 2.69461 50.4629 2.67662 50.4629 2.63086H48.4629C48.4629 3.14028 48.6228 3.63178 48.9833 4.03225L50.4699 2.69432ZM59.9121 12.0645L59.3121 12.8645L59.3201 12.8704L59.3282 12.8763L59.9121 12.0645ZM57.9883 11.3613L57.7788 12.3391L57.7802 12.3394L57.9883 11.3613ZM55.8105 10.6582L55.3547 11.5483L55.359 11.5505L55.8105 10.6582ZM54.6191 9.68164L53.7892 10.2397L53.7959 10.2494L54.6191 9.68164ZM55.332 6.13672L54.7007 5.36123L54.6973 5.36399L55.332 6.13672ZM61.0547 6.16602L60.4145 6.93424L60.4178 6.93698L61.0547 6.16602ZM62.1777 8.53906V9.53906H63.1777V8.53906H62.1777ZM60.3613 8.53906H59.3613V9.53906H60.3613V8.53906ZM59.7266 7.25977L59.0748 8.01821L59.0806 8.02315L59.7266 7.25977ZM58.4277 9.89648L58.2086 10.8722L58.2101 10.8725L58.4277 9.89648ZM61.8652 11.6348L61.0353 12.1926L61.0406 12.2005L61.046 12.2082L61.8652 11.6348ZM61.1426 15.3457L61.7426 16.1457L61.747 16.1424L61.1426 15.3457ZM55.957 15.7461L55.5391 16.6546L55.957 15.7461ZM54.4238 14.4961L53.5948 15.0554L53.6027 15.0669L54.4238 14.4961ZM53.877 12.748V11.748H52.877V12.748H53.877ZM55.6836 12.748L56.6822 12.6944L56.6313 11.748H55.6836V12.748ZM56.4062 14.1934L55.7829 14.9753L55.7892 14.9803L55.7954 14.9851L56.4062 14.1934ZM59.8438 14.3105L60.3985 15.1426L60.4014 15.1406L59.8438 14.3105ZM61.4688 13.1973C61.4688 12.4129 61.1486 11.722 60.496 11.2526L59.3282 12.8763C59.4178 12.9408 59.4688 13.005 59.4688 13.1973H61.4688ZM60.5121 11.2645C59.9626 10.8523 59.1372 10.5834 58.1964 10.3832L57.7802 12.3394C58.6753 12.5299 59.1324 12.7297 59.3121 12.8645L60.5121 11.2645ZM58.1978 10.3835C57.3304 10.1977 56.6963 9.98568 56.2621 9.76594L55.359 11.5505C56.0055 11.8776 56.8232 12.1344 57.7788 12.3391L58.1978 10.3835ZM56.2664 9.76816C55.836 9.54768 55.5844 9.31988 55.4424 9.11391L53.7959 10.2494C54.1747 10.7986 54.7174 11.2219 55.3547 11.5482L56.2664 9.76816ZM55.449 9.12364C55.3214 8.93397 55.2383 8.68566 55.2383 8.33398H53.2383C53.2383 9.02397 53.409 9.6741 53.7893 10.2396L55.449 9.12364ZM55.2383 8.33398C55.2383 7.79665 55.4452 7.33787 55.9668 6.90945L54.6973 5.36399C53.7605 6.13348 53.2383 7.13954 53.2383 8.33398H55.2383ZM55.9634 6.9122C56.4867 6.48614 57.1872 6.23828 58.1445 6.23828V4.23828C56.8232 4.23828 55.6487 4.58938 54.7007 5.36123L55.9634 6.9122ZM58.1445 6.23828C59.1664 6.23828 59.892 6.49881 60.4145 6.93424L61.6949 5.39779C60.733 4.59625 59.5185 4.23828 58.1445 4.23828V6.23828ZM60.4178 6.93698C60.9386 7.36723 61.1777 7.87652 61.1777 8.53906H63.1777C63.1777 7.27452 62.6681 6.20178 61.6916 5.39505L60.4178 6.93698ZM62.1777 7.53906H60.3613V9.53906H62.1777V7.53906ZM61.3613 8.53906C61.3613 7.71254 60.9899 7.01876 60.3725 6.49638L59.0806 8.02315C59.3096 8.21691 59.3613 8.376 59.3613 8.53906H61.3613ZM60.3783 6.50135C59.7516 5.96273 58.9809 5.72266 58.1445 5.72266V7.72266C58.5842 7.72266 58.8682 7.84066 59.0748 8.01819L60.3783 6.50135ZM58.1445 5.72266C57.353 5.72266 56.595 5.89417 55.9905 6.36075L57.2126 7.94393C57.3504 7.8376 57.621 7.72266 58.1445 7.72266V5.72266ZM55.9905 6.36075C55.3782 6.83341 55.0449 7.49816 55.0449 8.27539H57.0449C57.0449 8.12815 57.0827 8.04419 57.2126 7.94393L55.9905 6.36075ZM55.0449 8.27539C55.0449 9.02603 55.3695 9.68446 56.0225 10.1034L57.1025 8.42002C57.0793 8.40518 57.0684 8.39458 57.0644 8.39033C57.0608 8.38648 57.0601 8.38496 57.0598 8.38446C57.0594 8.38375 57.0562 8.37765 57.0528 8.36239C57.0492 8.34653 57.0449 8.31859 57.0449 8.27539H55.0449ZM56.0225 10.1034C56.5282 10.4278 57.3026 10.6687 58.2086 10.8722L58.6469 8.9208C57.756 8.72066 57.287 8.53838 57.1025 8.42002L56.0225 10.1034ZM58.2101 10.8725C59.0697 11.0642 59.7166 11.283 60.1778 11.5136L61.0722 9.72471C60.4136 9.39541 59.5957 9.1324 58.6454 8.92046L58.2101 10.8725ZM60.1778 11.5136C60.6294 11.7394 60.89 11.9764 61.0353 12.1926L62.6952 11.0769C62.3066 10.4989 61.7404 10.0588 61.0722 9.72471L60.1778 11.5136ZM61.046 12.2082C61.181 12.4011 61.2754 12.6696 61.2754 13.0703H63.2754C63.2754 12.3382 63.0963 11.6497 62.6845 11.0613L61.046 12.2082ZM61.2754 13.0703C61.2754 13.7 61.0454 14.1642 60.5382 14.549L61.747 16.1424C62.7502 15.3813 63.2754 14.3287 63.2754 13.0703H61.2754ZM60.5426 14.5457C60.0031 14.9503 59.2514 15.1953 58.2031 15.1953V17.1953C59.5637 17.1953 60.7716 16.8739 61.7426 16.1457L60.5426 14.5457ZM58.2031 15.1953C57.4752 15.1953 56.8733 15.0669 56.3749 14.8376L55.5391 16.6546C56.3428 17.0243 57.2383 17.1953 58.2031 17.1953V15.1953ZM56.3749 14.8376C55.869 14.6049 55.504 14.298 55.2449 13.9253L53.6027 15.0669C54.0859 15.7619 54.743 16.2884 55.5391 16.6546L56.3749 14.8376ZM55.2528 13.9368C54.9946 13.5541 54.877 13.1649 54.877 12.748H52.877C52.877 13.5812 53.1239 14.3573 53.5949 15.0554L55.2528 13.9368ZM53.877 13.748H55.6836V11.748H53.877V13.748ZM54.685 12.8017C54.732 13.6745 55.0967 14.4283 55.7829 14.9753L57.0296 13.4114C56.8174 13.2422 56.7003 13.0325 56.6822 12.6944L54.685 12.8017ZM55.7954 14.9851C56.4712 15.5064 57.3044 15.7207 58.2031 15.7207V13.7207C57.6175 13.7207 57.2528 13.5834 57.0171 13.4016L55.7954 14.9851ZM58.2031 15.7207C59.0103 15.7207 59.7718 15.5603 60.3985 15.1426L59.289 13.4785C59.0954 13.6076 58.7631 13.7207 58.2031 13.7207V15.7207ZM60.4014 15.1406C61.0665 14.6938 61.4688 14.0251 61.4688 13.1973H59.4688C59.4688 13.2939 59.4544 13.3674 59.2861 13.4805L60.4014 15.1406ZM76.1133 16L75.2189 16.4472L75.4952 17H76.1133V16ZM75.8594 14.8867L76.852 14.7657L76.5974 12.6782L75.139 14.1932L75.8594 14.8867ZM70.2832 15.3164L69.6174 16.0626L69.6252 16.0694L70.2832 15.3164ZM70.5371 10.5117L71.1249 11.3207L71.126 11.3199L70.5371 10.5117ZM75.8301 9.59375V10.5938H76.8301V9.59375H75.8301ZM75.2637 7.25977L74.5565 7.9669L74.5627 7.97299L75.2637 7.25977ZM71.3184 8.36328V9.36328H72.3184V8.36328H71.3184ZM69.502 8.36328H68.502V9.36328H69.502V8.36328ZM70.0586 6.83984L69.2636 6.23317L69.2624 6.23476L70.0586 6.83984ZM71.582 5.66797L71.1759 4.75415L71.1724 4.7557L71.582 5.66797ZM76.5625 6.15625L75.899 6.90445L75.903 6.90795L76.5625 6.15625ZM77.6367 8.66602H78.6367V8.65382L78.6364 8.64163L77.6367 8.66602ZM78.0078 15.8438H79.0078V15.6371L78.9259 15.4473L78.0078 15.8438ZM78.0078 16V17H79.0078V16H78.0078ZM75.8301 13.041L76.7294 13.4782L76.8301 13.2712V13.041H75.8301ZM75.8301 10.873H76.8301V9.87305H75.8301V10.873ZM77.0077 15.5528C77.0094 15.5561 77.0023 15.5422 76.9896 15.5034C76.9774 15.4658 76.9627 15.4133 76.9466 15.3431C76.9143 15.2015 76.882 15.0112 76.852 14.7657L74.8667 15.0078C74.9323 15.5454 75.0304 16.0703 75.2189 16.4472L77.0077 15.5528ZM75.139 14.1932C74.4793 14.8784 73.7334 15.1953 72.8516 15.1953V17.1953C74.3004 17.1953 75.5597 16.6399 76.5798 15.5803L75.139 14.1932ZM72.8516 15.1953C72.0084 15.1953 71.3993 14.9637 70.9412 14.5634L69.6252 16.0694C70.5083 16.841 71.6113 17.1953 72.8516 17.1953V15.1953ZM70.9489 14.5702C70.5016 14.1711 70.2871 13.6958 70.2871 13.0703H68.2871C68.2871 14.2548 68.7367 15.2768 69.6175 16.0626L70.9489 14.5702ZM70.2871 13.0703C70.2871 12.2646 70.5705 11.7235 71.1249 11.3207L69.9493 9.70271C68.837 10.5109 68.2871 11.6755 68.2871 13.0703H70.2871ZM71.126 11.3199C71.7324 10.8781 72.6738 10.5938 74.0723 10.5938V8.59375C72.4368 8.59375 71.0215 8.9214 69.9482 9.70352L71.126 11.3199ZM74.0723 10.5938H75.8301V8.59375H74.0723V10.5938ZM76.8301 9.59375V8.76367H74.8301V9.59375H76.8301ZM76.8301 8.76367C76.8301 7.91954 76.5698 7.14134 75.9646 6.54654L74.5627 7.97299C74.7127 8.12038 74.8301 8.34478 74.8301 8.76367H76.8301ZM75.9708 6.55266C75.344 5.92584 74.4924 5.69336 73.5938 5.69336V7.69336C74.1665 7.69336 74.4282 7.83848 74.5566 7.96687L75.9708 6.55266ZM73.5938 5.69336C72.7746 5.69336 72.0137 5.90324 71.3746 6.38021L72.5707 7.98307C72.804 7.809 73.1238 7.69336 73.5938 7.69336V5.69336ZM71.3746 6.38021C70.7363 6.85657 70.3184 7.52701 70.3184 8.36328H72.3184C72.3184 8.27508 72.3367 8.15776 72.5707 7.98307L71.3746 6.38021ZM71.3184 7.36328H69.502V9.36328H71.3184V7.36328ZM70.502 8.36328C70.502 8.08885 70.5935 7.7887 70.8548 7.44493L69.2624 6.23476C68.7815 6.86755 68.502 7.58303 68.502 8.36328H70.502ZM70.8535 7.44652C71.1182 7.09976 71.4864 6.80706 71.9916 6.58024L71.1724 4.7557C70.4016 5.10179 69.7542 5.59034 69.2636 6.23317L70.8535 7.44652ZM71.9882 6.58178C72.4938 6.35706 73.0602 6.23828 73.7012 6.23828V4.23828C72.8056 4.23828 71.9593 4.40596 71.1759 4.75416L71.9882 6.58178ZM73.7012 6.23828C74.7538 6.23828 75.4438 6.50073 75.899 6.90444L77.226 5.40806C76.301 4.58781 75.0835 4.23828 73.7012 4.23828V6.23828ZM75.903 6.90795C76.3482 7.29859 76.6166 7.85205 76.637 8.6904L78.6364 8.64163C78.6048 7.34457 78.157 6.22485 77.222 5.40455L75.903 6.90795ZM76.6367 8.66602V13.5293H78.6367V8.66602H76.6367ZM76.6367 13.5293C76.6367 14.5681 76.7667 15.4921 77.0898 16.2402L78.9259 15.4473C78.7541 15.0495 78.6367 14.4306 78.6367 13.5293H76.6367ZM77.0078 15.8438V16H79.0078V15.8438H77.0078ZM78.0078 15H76.1133V17H78.0078V15ZM73.1152 15.623C73.8634 15.623 74.5721 15.4272 75.2263 15.0498L74.2268 13.3174C73.8654 13.5259 73.4999 13.623 73.1152 13.623V15.623ZM75.2263 15.0498C75.8848 14.6699 76.4036 14.1486 76.7294 13.4782L74.9307 12.6038C74.8009 12.8709 74.584 13.1114 74.2268 13.3174L75.2263 15.0498ZM76.8301 13.041V10.873H74.8301V13.041H76.8301ZM75.8301 9.87305H74.4141V11.873H75.8301V9.87305ZM74.4141 9.87305C73.2425 9.87305 72.1998 10.0387 71.4187 10.4958C70.5549 11.0014 70.0938 11.818 70.0938 12.8164H72.0938C72.0938 12.5193 72.186 12.3642 72.429 12.2219C72.7547 12.0313 73.3721 11.873 74.4141 11.873V9.87305ZM70.0938 12.8164C70.0938 13.6293 70.3781 14.3705 71.0148 14.9084L72.3055 13.3806C72.187 13.2805 72.0938 13.1363 72.0938 12.8164H70.0938ZM71.0148 14.9084C71.6071 15.4088 72.3355 15.623 73.1152 15.623V13.623C72.71 13.623 72.4684 13.5183 72.3055 13.3806L71.0148 14.9084ZM92.1582 12.6699V11.6699H91.2431L91.1621 12.5814L92.1582 12.6699ZM93.8672 12.6699L94.8657 12.7236L94.9224 11.6699H93.8672V12.6699ZM91.6992 15.707L91.2484 14.8144L91.2447 14.8163L91.6992 15.707ZM86.2305 14.7598L85.4791 15.4197L85.4839 15.4251L86.2305 14.7598ZM87.1484 5.90234L86.6191 5.0539L86.6156 5.05611L87.1484 5.90234ZM92.6074 6.30273L91.9351 7.04296L91.9381 7.04572L92.6074 6.30273ZM93.8672 9.06641V10.0664H94.9142L94.8661 9.02048L93.8672 9.06641ZM92.1582 9.06641L91.1611 9.14238L91.2315 10.0664H92.1582V9.06641ZM91.377 7.38672L90.6853 8.10892L90.6905 8.11389L90.6957 8.11879L91.377 7.38672ZM87.5195 7.71875L86.7252 7.1113L86.7243 7.11247L87.5195 7.71875ZM89.668 15.7207C90.5321 15.7207 91.3199 15.4526 91.9872 14.9115L90.7276 13.358C90.4314 13.5982 90.0929 13.7207 89.668 13.7207V15.7207ZM91.9872 14.9115C92.6664 14.3608 93.0768 13.6299 93.1543 12.7585L91.1621 12.5814C91.1354 12.8819 91.012 13.1274 90.7276 13.358L91.9872 14.9115ZM92.1582 13.6699H93.8672V11.6699H92.1582V13.6699ZM92.8686 12.6162C92.8472 13.0157 92.7116 13.414 92.4239 13.8237L94.0605 14.9732C94.541 14.2892 94.8221 13.5351 94.8657 12.7236L92.8686 12.6162ZM92.4239 13.8237C92.1418 14.2253 91.7583 14.5569 91.2484 14.8144L92.15 16.5996C92.9292 16.2061 93.5744 15.6653 94.0605 14.9732L92.4239 13.8237ZM91.2447 14.8163C90.7474 15.07 90.2261 15.1953 89.668 15.1953V17.1953C90.5421 17.1953 91.375 16.9951 92.1537 16.5978L91.2447 14.8163ZM89.668 15.1953C88.4755 15.1953 87.6158 14.8112 86.977 14.0945L85.4839 15.4251C86.5509 16.6224 87.9828 17.1953 89.668 17.1953V15.1953ZM86.9818 14.0998C86.3388 13.3678 85.9609 12.3126 85.9609 10.8145H83.9609C83.9609 12.6496 84.4294 14.2246 85.4792 15.4197L86.9818 14.0998ZM85.9609 10.8145V10.5117H83.9609V10.8145H85.9609ZM85.9609 10.5117C85.9609 9.60678 86.1265 8.84154 86.4318 8.19408L84.6229 7.34107C84.173 8.29518 83.9609 9.35936 83.9609 10.5117H85.9609ZM86.4318 8.19408C86.7337 7.55396 87.1502 7.08293 87.6813 6.74858L86.6156 5.05611C85.7404 5.60718 85.0762 6.37963 84.6229 7.34107L86.4318 8.19408ZM87.6777 6.75078C88.2056 6.42144 88.8528 6.23828 89.6582 6.23828V4.23828C88.5366 4.23828 87.5105 4.49783 86.6191 5.05391L87.6777 6.75078ZM89.6582 6.23828C90.6273 6.23828 91.3608 6.52132 91.9351 7.04295L93.2798 5.56252C92.2916 4.66488 91.0589 4.23828 89.6582 4.23828V6.23828ZM91.9381 7.04572C92.5124 7.56306 92.8275 8.22599 92.8682 9.11233L94.8661 9.02048C94.8027 7.6412 94.278 6.46168 93.2767 5.55975L91.9381 7.04572ZM93.8672 8.06641H92.1582V10.0664H93.8672V8.06641ZM93.1553 8.99044C93.0856 8.07559 92.7247 7.27487 92.0582 6.65465L90.6957 8.11879C90.9667 8.37096 91.1266 8.69003 91.1611 9.14238L93.1553 8.99044ZM92.0686 6.66452C91.4068 6.03062 90.5802 5.72266 89.6582 5.72266V7.72266C90.1033 7.72266 90.4227 7.85741 90.6853 8.10892L92.0686 6.66452ZM89.6582 5.72266C88.4639 5.72266 87.4426 6.17317 86.7252 7.1113L88.3139 8.3262C88.6121 7.9362 89.0166 7.72266 89.6582 7.72266V5.72266ZM86.7243 7.11247C86.0376 8.01324 85.7676 9.21745 85.7676 10.5801H87.7676C87.7676 9.44271 87.9989 8.73936 88.3148 8.32503L86.7243 7.11247ZM85.7676 10.5801V10.9219H87.7676V10.5801H85.7676ZM85.7676 10.9219C85.7676 12.2591 86.0405 13.4437 86.7243 14.3407L88.3148 13.1281C87.996 12.7099 87.7676 12.0195 87.7676 10.9219H85.7676ZM86.7243 14.3407C87.4404 15.28 88.4699 15.7207 89.668 15.7207V13.7207C89.0041 13.7207 88.6013 13.5039 88.3148 13.1281L86.7243 14.3407ZM96.0254 7.82617L95.1295 7.38177L95.1268 7.38747L96.0254 7.82617ZM97.7246 5.91211L97.2001 5.06071L97.1967 5.06282L97.7246 5.91211ZM103.701 6.73242L102.954 7.39679L102.956 7.3995L103.701 6.73242ZM104.443 13.6074L103.543 13.1717L103.542 13.1747L104.443 13.6074ZM102.754 15.5117L102.227 14.6616L102.224 14.6637L102.754 15.5117ZM96.748 14.7012L96.0006 15.3655L96.0031 15.3683L96.748 14.7012ZM98.0469 13.6562L97.2513 14.2621L97.2548 14.2667L98.0469 13.6562ZM102.422 13.6465L103.22 14.2488L103.223 14.2453L102.422 13.6465ZM102.402 7.80664L101.605 8.41011L101.611 8.41809L102.402 7.80664ZM96.4199 10.6191C96.4199 9.71687 96.595 8.93884 96.924 8.26487L95.1268 7.38747C94.6485 8.36715 94.4199 9.4511 94.4199 10.6191H96.4199ZM96.9212 8.27056C97.256 7.59564 97.7011 7.10419 98.2525 6.76139L97.1967 5.06282C96.3028 5.61847 95.6151 6.40306 95.1296 7.38178L96.9212 8.27056ZM98.2491 6.76351C98.8069 6.41985 99.4524 6.23828 100.215 6.23828V4.23828C99.1153 4.23828 98.1006 4.50593 97.2001 5.06071L98.2491 6.76351ZM100.215 6.23828C101.394 6.23828 102.274 6.63259 102.954 7.39679L104.449 6.06806C103.357 4.84006 101.914 4.23828 100.215 4.23828V6.23828ZM102.956 7.3995C103.647 8.17148 104.039 9.23878 104.039 10.707H106.039C106.039 8.86799 105.539 7.28555 104.446 6.06534L102.956 7.3995ZM104.039 10.707V10.834H106.039V10.707H104.039ZM104.039 10.834C104.039 11.7312 103.867 12.5038 103.543 13.1717L105.343 14.0432C105.814 13.0705 106.039 11.994 106.039 10.834H104.039ZM103.542 13.1747C103.23 13.8242 102.794 14.3108 102.227 14.6616L103.281 16.3618C104.186 15.8011 104.875 15.0182 105.345 14.0402L103.542 13.1747ZM102.224 14.6637C101.67 15.0098 101.018 15.1953 100.234 15.1953V17.1953C101.352 17.1953 102.379 16.9251 103.284 16.3597L102.224 14.6637ZM100.234 15.1953C99.0636 15.1953 98.1806 14.8019 97.493 14.0341L96.0031 15.3683C97.0994 16.5926 98.5405 17.1953 100.234 17.1953V15.1953ZM97.4955 14.0368C96.8081 13.2635 96.4199 12.2008 96.4199 10.7461H94.4199C94.4199 12.5726 94.9172 14.1466 96.0006 15.3655L97.4955 14.0368ZM96.4199 10.7461V10.6191H94.4199V10.7461H96.4199ZM96.2363 10.834C96.2363 12.156 96.542 13.3306 97.2513 14.2621L98.8425 13.0504C98.471 12.5626 98.2363 11.8557 98.2363 10.834H96.2363ZM97.2548 14.2667C97.9948 15.2269 99.0191 15.7207 100.234 15.7207V13.7207C99.6268 13.7207 99.1927 13.5048 98.839 13.0458L97.2548 14.2667ZM100.234 15.7207C101.458 15.7207 102.486 15.2222 103.22 14.2488L101.624 13.0442C101.277 13.5031 100.847 13.7207 100.234 13.7207V15.7207ZM103.223 14.2453C103.938 13.2889 104.232 12.0397 104.232 10.6191H102.232C102.232 11.7897 101.987 12.5587 101.621 13.0476L103.223 14.2453ZM104.232 10.6191C104.232 9.30171 103.916 8.13033 103.194 7.19519L101.611 8.41809C101.995 8.91524 102.232 9.61886 102.232 10.6191H104.232ZM103.2 7.2032C102.463 6.22907 101.437 5.72266 100.215 5.72266V7.72266C100.815 7.72266 101.248 7.93889 101.605 8.41008L103.2 7.2032ZM100.215 5.72266C99.0111 5.72266 97.9998 6.22268 97.2646 7.1767L98.8487 8.39752C99.2073 7.93227 99.6347 7.72266 100.215 7.72266V5.72266ZM97.2646 7.1767C96.5322 8.12708 96.2363 9.39224 96.2363 10.834H98.2363C98.2363 9.6325 98.4874 8.86641 98.8487 8.39752L97.2646 7.1767ZM107.432 7.82617L106.536 7.38177L106.533 7.38747L107.432 7.82617ZM109.131 5.91211L108.606 5.06071L108.603 5.06282L109.131 5.91211ZM115.107 6.73242L114.36 7.39679L114.362 7.3995L115.107 6.73242ZM115.85 13.6074L114.95 13.1717L114.948 13.1747L115.85 13.6074ZM114.16 15.5117L113.634 14.6616L113.63 14.6637L114.16 15.5117ZM108.154 14.7012L107.407 15.3655L107.409 15.3683L108.154 14.7012ZM109.453 13.6562L108.658 14.2621L108.661 14.2667L109.453 13.6562ZM113.828 13.6465L114.626 14.2488L114.629 14.2453L113.828 13.6465ZM113.809 7.80664L113.011 8.41011L113.017 8.41809L113.809 7.80664ZM107.826 10.6191C107.826 9.71687 108.001 8.93884 108.33 8.26487L106.533 7.38747C106.055 8.36715 105.826 9.4511 105.826 10.6191H107.826ZM108.327 8.27056C108.662 7.59564 109.107 7.10419 109.659 6.76139L108.603 5.06282C107.709 5.61847 107.021 6.40306 106.536 7.38178L108.327 8.27056ZM109.655 6.76351C110.213 6.41985 110.859 6.23828 111.621 6.23828V4.23828C110.522 4.23828 109.507 4.50593 108.606 5.06071L109.655 6.76351ZM111.621 6.23828C112.8 6.23828 113.681 6.63259 114.36 7.39679L115.855 6.06806C114.763 4.84006 113.32 4.23828 111.621 4.23828V6.23828ZM114.362 7.3995C115.054 8.17148 115.445 9.23878 115.445 10.707H117.445C117.445 8.86799 116.945 7.28555 115.852 6.06534L114.362 7.3995ZM115.445 10.707V10.834H117.445V10.707H115.445ZM115.445 10.834C115.445 11.7312 115.273 12.5038 114.95 13.1717L116.75 14.0432C117.221 13.0705 117.445 11.994 117.445 10.834H115.445ZM114.948 13.1747C114.636 13.8242 114.2 14.3108 113.634 14.6616L114.687 16.3618C115.592 15.8011 116.282 15.0182 116.751 14.0402L114.948 13.1747ZM113.63 14.6637C113.076 15.0098 112.424 15.1953 111.641 15.1953V17.1953C112.758 17.1953 113.786 16.9251 114.69 16.3597L113.63 14.6637ZM111.641 15.1953C110.47 15.1953 109.587 14.8019 108.899 14.0341L107.409 15.3683C108.506 16.5926 109.947 17.1953 111.641 17.1953V15.1953ZM108.902 14.0368C108.214 13.2635 107.826 12.2008 107.826 10.7461H105.826C105.826 12.5726 106.323 14.1466 107.407 15.3655L108.902 14.0368ZM107.826 10.7461V10.6191H105.826V10.7461H107.826ZM107.643 10.834C107.643 12.156 107.948 13.3306 108.658 14.2621L110.249 13.0504C109.877 12.5626 109.643 11.8557 109.643 10.834H107.643ZM108.661 14.2667C109.401 15.2269 110.425 15.7207 111.641 15.7207V13.7207C111.033 13.7207 110.599 13.5048 110.245 13.0458L108.661 14.2667ZM111.641 15.7207C112.864 15.7207 113.892 15.2222 114.626 14.2488L113.03 13.0442C112.684 13.5031 112.253 13.7207 111.641 13.7207V15.7207ZM114.629 14.2453C115.344 13.2889 115.639 12.0397 115.639 10.6191H113.639C113.639 11.7897 113.393 12.5587 113.027 13.0476L114.629 14.2453ZM115.639 10.6191C115.639 9.30171 115.322 8.13033 114.6 7.19519L113.017 8.41809C113.401 8.91524 113.639 9.61886 113.639 10.6191H115.639ZM114.606 7.2032C113.869 6.22907 112.844 5.72266 111.621 5.72266V7.72266C112.221 7.72266 112.655 7.93889 113.011 8.41008L114.606 7.2032ZM111.621 5.72266C110.417 5.72266 109.406 6.22268 108.671 7.1767L110.255 8.39752C110.614 7.93227 111.041 7.72266 111.621 7.72266V5.72266ZM108.671 7.1767C107.938 8.12708 107.643 9.39224 107.643 10.834H109.643C109.643 9.6325 109.894 8.86641 110.255 8.39752L108.671 7.1767ZM120.674 16V17H121.674V16H120.674ZM118.867 16H117.867V17H118.867V16ZM118.867 1V0H117.867V1H118.867ZM120.674 1H121.674V0H120.674V1ZM120.674 15H118.867V17H120.674V15ZM119.867 16V1H117.867V16H119.867ZM118.867 2H120.674V0H118.867V2ZM119.674 1V16H121.674V1H119.674ZM136.367 14.7305L137.163 15.3356L137.165 15.333L136.367 14.7305ZM130.283 14.7793L131.075 14.168L129.474 12.0956L129.286 14.7075L130.283 14.7793ZM130.195 16V17H131.126L131.193 16.0718L130.195 16ZM128.535 16H127.535V17H128.535V16ZM128.535 1V0H127.535V1H128.535ZM130.342 1H131.342V0H130.342V1ZM130.342 6.5957H129.342V9.43059L131.12 7.22313L130.342 6.5957ZM136.377 6.69336L135.578 7.29422L135.58 7.29763L136.377 6.69336ZM130.342 8.43164L129.437 8.00584L129.342 8.2081V8.43164H130.342ZM130.342 13.002H129.342V13.238L129.447 13.4492L130.342 13.002ZM136.48 10.834C136.48 12.2987 136.145 13.3655 135.569 14.1279L137.165 15.333C138.074 14.1292 138.48 12.5985 138.48 10.834H136.48ZM135.571 14.1254C135.022 14.8476 134.323 15.1953 133.379 15.1953V17.1953C134.934 17.1953 136.228 16.5665 137.163 15.3356L135.571 14.1254ZM133.379 15.1953C132.312 15.1953 131.59 14.8354 131.075 14.168L129.492 15.3906C130.435 16.6112 131.777 17.1953 133.379 17.1953V15.1953ZM129.286 14.7075L129.198 15.9282L131.193 16.0718L131.281 14.8511L129.286 14.7075ZM130.195 15H128.535V17H130.195V15ZM129.535 16V1H127.535V16H129.535ZM128.535 2H130.342V0H128.535V2ZM129.342 1V6.5957H131.342V1H129.342ZM131.12 7.22313C131.639 6.58022 132.344 6.23828 133.359 6.23828V4.23828C131.81 4.23828 130.503 4.80129 129.563 5.96828L131.12 7.22313ZM133.359 6.23828C134.348 6.23828 135.05 6.59168 135.578 7.29422L137.176 6.0925C136.246 4.85493 134.935 4.23828 133.359 4.23828V6.23828ZM135.58 7.29763C136.142 8.03796 136.48 9.12733 136.48 10.6777H138.48C138.48 8.85574 138.084 7.28886 137.174 6.08909L135.58 7.29763ZM136.48 10.6777V10.834H138.48V10.6777H136.48ZM136.674 10.6289C136.674 9.2886 136.418 8.10374 135.777 7.19911L134.145 8.35558C134.454 8.79209 134.674 9.50828 134.674 10.6289H136.674ZM135.777 7.19911C135.096 6.23866 134.094 5.77148 132.91 5.77148V7.77148C133.51 7.77148 133.875 7.97488 134.145 8.35558L135.777 7.19911ZM132.91 5.77148C132.155 5.77148 131.447 5.9488 130.832 6.3467C130.218 6.74353 129.761 7.31741 129.437 8.00584L131.247 8.85744C131.443 8.4391 131.675 8.1829 131.917 8.02635C132.158 7.87086 132.474 7.77148 132.91 7.77148V5.77148ZM129.342 8.43164V13.002H131.342V8.43164H129.342ZM129.447 13.4492C129.788 14.1301 130.252 14.6965 130.864 15.0888C131.478 15.483 132.18 15.6621 132.93 15.6621V13.6621C132.507 13.6621 132.192 13.5645 131.944 13.4054C131.693 13.2443 131.449 12.9806 131.236 12.5547L129.447 13.4492ZM132.93 15.6621C134.099 15.6621 135.083 15.1864 135.763 14.2397L134.139 13.0728C133.856 13.4672 133.492 13.6621 132.93 13.6621V15.6621ZM135.763 14.2397C136.423 13.3219 136.674 12.065 136.674 10.6289H134.674C134.674 11.8881 134.443 12.6494 134.139 13.0728L135.763 14.2397ZM139.893 7.82617L138.997 7.38177L138.994 7.38747L139.893 7.82617ZM141.592 5.91211L141.067 5.06071L141.064 5.06282L141.592 5.91211ZM147.568 6.73242L146.821 7.39679L146.823 7.3995L147.568 6.73242ZM148.311 13.6074L147.41 13.1717L147.409 13.1747L148.311 13.6074ZM146.621 15.5117L146.094 14.6616L146.091 14.6637L146.621 15.5117ZM140.615 14.7012L139.868 15.3655L139.87 15.3683L140.615 14.7012ZM141.914 13.6562L141.118 14.2621L141.122 14.2667L141.914 13.6562ZM146.289 13.6465L147.087 14.2488L147.09 14.2453L146.289 13.6465ZM146.27 7.80664L145.472 8.41011L145.478 8.41809L146.27 7.80664ZM140.287 10.6191C140.287 9.71687 140.462 8.93884 140.791 8.26487L138.994 7.38747C138.516 8.36715 138.287 9.4511 138.287 10.6191H140.287ZM140.788 8.27056C141.123 7.59564 141.568 7.10419 142.12 6.76139L141.064 5.06282C140.17 5.61847 139.482 6.40306 138.997 7.38178L140.788 8.27056ZM142.116 6.76351C142.674 6.41985 143.32 6.23828 144.082 6.23828V4.23828C142.983 4.23828 141.968 4.50593 141.067 5.06071L142.116 6.76351ZM144.082 6.23828C145.261 6.23828 146.142 6.63259 146.821 7.39679L148.316 6.06806C147.224 4.84006 145.781 4.23828 144.082 4.23828V6.23828ZM146.823 7.3995C147.515 8.17148 147.906 9.23878 147.906 10.707H149.906C149.906 8.86799 149.406 7.28555 148.313 6.06534L146.823 7.3995ZM147.906 10.707V10.834H149.906V10.707H147.906ZM147.906 10.834C147.906 11.7312 147.734 12.5038 147.41 13.1717L149.211 14.0432C149.682 13.0705 149.906 11.994 149.906 10.834H147.906ZM147.409 13.1747C147.097 13.8242 146.661 14.3108 146.094 14.6616L147.148 16.3618C148.053 15.8011 148.743 15.0182 149.212 14.0402L147.409 13.1747ZM146.091 14.6637C145.537 15.0098 144.885 15.1953 144.102 15.1953V17.1953C145.219 17.1953 146.247 16.9251 147.151 16.3597L146.091 14.6637ZM144.102 15.1953C142.931 15.1953 142.048 14.8019 141.36 14.0341L139.87 15.3683C140.967 16.5926 142.408 17.1953 144.102 17.1953V15.1953ZM141.363 14.0368C140.675 13.2635 140.287 12.2008 140.287 10.7461H138.287C138.287 12.5726 138.784 14.1466 139.868 15.3655L141.363 14.0368ZM140.287 10.7461V10.6191H138.287V10.7461H140.287ZM140.104 10.834C140.104 12.156 140.409 13.3306 141.118 14.2621L142.71 13.0504C142.338 12.5626 142.104 11.8557 142.104 10.834H140.104ZM141.122 14.2667C141.862 15.2269 142.886 15.7207 144.102 15.7207V13.7207C143.494 13.7207 143.06 13.5048 142.706 13.0458L141.122 14.2667ZM144.102 15.7207C145.325 15.7207 146.353 15.2222 147.087 14.2488L145.491 13.0442C145.145 13.5031 144.714 13.7207 144.102 13.7207V15.7207ZM147.09 14.2453C147.805 13.2889 148.1 12.0397 148.1 10.6191H146.1C146.1 11.7897 145.854 12.5587 145.488 13.0476L147.09 14.2453ZM148.1 10.6191C148.1 9.30171 147.783 8.13033 147.061 7.19519L145.478 8.41809C145.862 8.91524 146.1 9.61886 146.1 10.6191H148.1ZM147.067 7.2032C146.33 6.22907 145.305 5.72266 144.082 5.72266V7.72266C144.682 7.72266 145.116 7.93889 145.472 8.41008L147.067 7.2032ZM144.082 5.72266C142.878 5.72266 141.867 6.22268 141.132 7.1767L142.716 8.39752C143.074 7.93227 143.502 7.72266 144.082 7.72266V5.72266ZM141.132 7.1767C140.399 8.12708 140.104 9.39224 140.104 10.834H142.104C142.104 9.6325 142.355 8.86641 142.716 8.39752L141.132 7.1767ZM154.502 9.29102L153.644 9.80551L154.497 11.2257L155.357 9.81028L154.502 9.29102ZM156.846 5.43359V4.43359H156.283L155.991 4.91433L156.846 5.43359ZM158.955 5.43359L159.789 5.98541L160.816 4.43359H158.955V5.43359ZM155.498 10.6582L154.664 10.1064L154.297 10.6605L154.666 11.2133L155.498 10.6582ZM159.062 16V17H160.932L159.894 15.4449L159.062 16ZM156.973 16L156.122 16.5253L156.415 17H156.973V16ZM154.531 12.0449L155.382 11.5197L154.531 10.1411L153.68 11.5197L154.531 12.0449ZM152.09 16V17H152.648L152.941 16.5253L152.09 16ZM149.99 16L149.158 15.4449L148.121 17H149.99V16ZM153.555 10.6582L154.387 11.2133L154.755 10.6605L154.389 10.1064L153.555 10.6582ZM150.098 5.43359V4.43359H148.237L149.264 5.98541L150.098 5.43359ZM152.188 5.43359L153.045 4.9191L152.754 4.43359H152.188V5.43359ZM155.357 9.81028L157.7 5.95285L155.991 4.91433L153.647 8.77176L155.357 9.81028ZM156.846 6.43359H158.955V4.43359H156.846V6.43359ZM158.121 4.88177L154.664 10.1064L156.332 11.21L159.789 5.98541L158.121 4.88177ZM154.666 11.2133L158.231 16.5551L159.894 15.4449L156.33 10.1032L154.666 11.2133ZM159.062 15H156.973V17H159.062V15ZM157.824 15.4747L155.382 11.5197L153.68 12.5702L156.122 16.5253L157.824 15.4747ZM153.68 11.5197L151.239 15.4747L152.941 16.5253L155.382 12.5702L153.68 11.5197ZM152.09 15H149.99V17H152.09V15ZM150.822 16.5551L154.387 11.2133L152.723 10.1032L149.158 15.4449L150.822 16.5551ZM154.389 10.1064L150.932 4.88177L149.264 5.98541L152.721 11.21L154.389 10.1064ZM150.098 6.43359H152.188V4.43359H150.098V6.43359ZM151.33 5.94809L153.644 9.80551L155.359 8.77652L153.045 4.9191L151.33 5.94809Z" fill="url(#paint0_linear)"/>
<path d="M16.4746 3.32422V4.32422H17.4746V3.32422H16.4746ZM11.9043 3.32422V2.32422H10.9043V3.32422H11.9043ZM11.9043 16V17H12.9043V16H11.9043ZM10.0391 16H9.03906V17H10.0391V16ZM10.0391 3.32422H11.0391V2.32422H10.0391V3.32422ZM5.47852 3.32422H4.47852V4.32422H5.47852V3.32422ZM5.47852 1.78125V0.78125H4.47852V1.78125H5.47852ZM16.4746 1.78125H17.4746V0.78125H16.4746V1.78125ZM16.4746 2.32422H11.9043V4.32422H16.4746V2.32422ZM10.9043 3.32422V16H12.9043V3.32422H10.9043ZM11.9043 15H10.0391V17H11.9043V15ZM11.0391 16V3.32422H9.03906V16H11.0391ZM10.0391 2.32422H5.47852V4.32422H10.0391V2.32422ZM6.47852 3.32422V1.78125H4.47852V3.32422H6.47852ZM5.47852 2.78125H16.4746V0.78125H5.47852V2.78125ZM15.4746 1.78125V3.32422H17.4746V1.78125H15.4746ZM20.1074 6.71289H19.1074V9.52392L20.8827 7.34445L20.1074 6.71289ZM26.6113 9.01758L27.6114 9.01758L27.6113 9.00983L26.6113 9.01758ZM26.6113 16V17H27.6113V16H26.6113ZM24.8047 16H23.8047V17H24.8047V16ZM24.8047 9.00781H25.8047L25.8047 8.99927L24.8047 9.00781ZM24.2773 7.31836L23.5445 7.99884L23.5511 8.00574L24.2773 7.31836ZM20.1074 8.4707L19.2084 8.03273L19.1074 8.24007V8.4707H20.1074ZM20.1074 16V17H21.1074V16H20.1074ZM18.3008 16H17.3008V17H18.3008V16ZM18.3008 1V0H17.3008V1H18.3008ZM20.1074 1H21.1074V0H20.1074V1ZM20.8827 7.34445C21.4911 6.59762 22.2465 6.23828 23.2324 6.23828V4.23828C21.6532 4.23828 20.3253 4.86202 19.3321 6.08133L20.8827 7.34445ZM23.2324 6.23828C24.1609 6.23828 24.689 6.4946 25.0065 6.84962C25.344 7.22711 25.6026 7.89266 25.6114 9.02533L27.6113 9.00983C27.6005 7.62297 27.2863 6.39887 26.4974 5.51659C25.6886 4.61185 24.537 4.23828 23.2324 4.23828V6.23828ZM25.6113 9.01758V16H27.6113V9.01758H25.6113ZM26.6113 15H24.8047V17H26.6113V15ZM25.8047 16V9.00781H23.8047V16H25.8047ZM25.8047 8.99927C25.7971 8.11209 25.5936 7.25436 25.0036 6.63097L23.5511 8.00574C23.6512 8.11153 23.7993 8.3801 23.8047 9.01636L25.8047 8.99927ZM25.0101 6.63791C24.4103 5.99195 23.5589 5.77148 22.6855 5.77148V7.77148C23.2575 7.77148 23.4673 7.91561 23.5446 7.99881L25.0101 6.63791ZM22.6855 5.77148C21.9108 5.77148 21.1912 5.98187 20.5659 6.42327L21.7193 8.0572C21.9794 7.8736 22.2884 7.77148 22.6855 7.77148V5.77148ZM20.5659 6.42327C19.9796 6.83712 19.5264 7.38012 19.2084 8.03273L21.0064 8.90867C21.1833 8.54566 21.4201 8.26835 21.7193 8.0572L20.5659 6.42327ZM19.1074 8.4707V16H21.1074V8.4707H19.1074ZM20.1074 15H18.3008V17H20.1074V15ZM19.3008 16V1H17.3008V16H19.3008ZM18.3008 2H20.1074V0H18.3008V2ZM19.1074 1V6.71289H21.1074V1H19.1074ZM31.2793 16V17H32.2793V16H31.2793ZM29.4727 16H28.4727V17H29.4727V16ZM29.4727 5.43359V4.43359H28.4727V5.43359H29.4727ZM31.2793 5.43359H32.2793V4.43359H31.2793V5.43359ZM29.5898 1.88867L28.8477 1.21839L28.8417 1.22508L28.8358 1.23189L29.5898 1.88867ZM29.5898 3.36328L28.8465 4.03225L28.8526 4.03898L28.8588 4.0456L29.5898 3.36328ZM31.2793 15H29.4727V17H31.2793V15ZM30.4727 16V5.43359H28.4727V16H30.4727ZM29.4727 6.43359H31.2793V4.43359H29.4727V6.43359ZM30.2793 5.43359V16H32.2793V5.43359H30.2793ZM30.3262 2.63086C30.3262 2.58532 30.3328 2.56486 30.3344 2.56035C30.3355 2.55717 30.3368 2.55366 30.3439 2.54545L28.8358 1.23189C28.486 1.63352 28.3262 2.12108 28.3262 2.63086H30.3262ZM30.3319 2.55896C30.3233 2.56849 30.3127 2.57779 30.3013 2.58549C30.29 2.59308 30.2821 2.59637 30.2804 2.59701C30.278 2.5979 30.3086 2.58594 30.3906 2.58594V0.585938C29.8441 0.585938 29.2715 0.749242 28.8477 1.21839L30.3319 2.55896ZM30.3906 2.58594C30.4727 2.58594 30.5032 2.5979 30.5009 2.59701C30.4992 2.59637 30.4912 2.59308 30.48 2.58549C30.4685 2.57779 30.4579 2.56849 30.4493 2.55896L31.9335 1.21839C31.5098 0.749242 30.9372 0.585938 30.3906 0.585938V2.58594ZM30.4493 2.55896C30.4543 2.56451 30.4563 2.56769 30.4568 2.56853C30.4573 2.56931 30.4576 2.56994 30.4581 2.57129C30.4586 2.57267 30.4648 2.58929 30.4648 2.63086H32.4648C32.4648 2.11105 32.2952 1.61888 31.9335 1.21839L30.4493 2.55896ZM30.4648 2.63086C30.4648 2.67265 30.4586 2.68676 30.4596 2.68394C30.4599 2.68312 30.4608 2.68125 30.462 2.67934C30.4631 2.67748 30.4631 2.678 30.4604 2.68096L31.9225 4.0456C32.2949 3.64653 32.4648 3.1505 32.4648 2.63086H30.4648ZM30.4604 2.68096C30.4701 2.67054 30.4813 2.66117 30.4926 2.65384C30.4979 2.65037 30.5024 2.64788 30.5058 2.6462C30.5091 2.64453 30.511 2.64386 30.5109 2.64388C30.5101 2.64418 30.4759 2.65625 30.3906 2.65625V4.65625C30.9275 4.65625 31.4963 4.50215 31.9225 4.0456L30.4604 2.68096ZM30.3906 2.65625C30.3053 2.65625 30.2711 2.64418 30.2703 2.64388C30.2703 2.64386 30.2721 2.64453 30.2755 2.6462C30.2788 2.64788 30.2834 2.65037 30.2887 2.65384C30.2999 2.66117 30.3112 2.67054 30.3209 2.68096L28.8588 4.0456C29.2849 4.50215 29.8538 4.65625 30.3906 4.65625V2.65625ZM30.3331 2.69432C30.331 2.69198 30.3311 2.69166 30.332 2.69315C30.3329 2.69466 30.3332 2.69562 30.333 2.69497C30.3328 2.69461 30.3262 2.67662 30.3262 2.63086H28.3262C28.3262 3.14028 28.4861 3.63178 28.8465 4.03225L30.3331 2.69432ZM39.7754 12.0645L39.1754 12.8645L39.1834 12.8704L39.1915 12.8763L39.7754 12.0645ZM37.8516 11.3613L37.642 12.3391L37.6435 12.3394L37.8516 11.3613ZM35.6738 10.6582L35.2179 11.5483L35.2223 11.5505L35.6738 10.6582ZM34.4824 9.68164L33.6525 10.2397L33.6592 10.2494L34.4824 9.68164ZM35.1953 6.13672L34.5639 5.36123L34.5606 5.36399L35.1953 6.13672ZM40.918 6.16602L40.2778 6.93424L40.2811 6.93698L40.918 6.16602ZM42.041 8.53906V9.53906H43.041V8.53906H42.041ZM40.2246 8.53906H39.2246V9.53906H40.2246V8.53906ZM39.5898 7.25977L38.9381 8.01821L38.9439 8.02315L39.5898 7.25977ZM38.291 9.89648L38.0718 10.8722L38.0733 10.8725L38.291 9.89648ZM41.7285 11.6348L40.8986 12.1926L40.9039 12.2005L40.9093 12.2082L41.7285 11.6348ZM41.0059 15.3457L41.6059 16.1457L41.6102 16.1424L41.0059 15.3457ZM35.8203 15.7461L35.4024 16.6546L35.8203 15.7461ZM34.2871 14.4961L33.4581 15.0554L33.466 15.0669L34.2871 14.4961ZM33.7402 12.748V11.748H32.7402V12.748H33.7402ZM35.5469 12.748L36.5454 12.6944L36.4946 11.748H35.5469V12.748ZM36.2695 14.1934L35.6462 14.9753L35.6524 14.9803L35.6587 14.9851L36.2695 14.1934ZM39.707 14.3105L40.2617 15.1426L40.2647 15.1406L39.707 14.3105ZM41.332 13.1973C41.332 12.4129 41.0118 11.722 40.3593 11.2526L39.1915 12.8763C39.2811 12.9408 39.332 13.005 39.332 13.1973H41.332ZM40.3754 11.2645C39.8259 10.8523 39.0005 10.5834 38.0597 10.3832L37.6435 12.3394C38.5386 12.5299 38.9957 12.7297 39.1754 12.8645L40.3754 11.2645ZM38.0611 10.3835C37.1937 10.1977 36.5596 9.98568 36.1253 9.76594L35.2223 11.5505C35.8688 11.8776 36.6865 12.1344 37.642 12.3391L38.0611 10.3835ZM36.1297 9.76816C35.6992 9.54768 35.4477 9.31988 35.3056 9.11391L33.6592 10.2494C34.038 10.7986 34.5807 11.2219 35.218 11.5482L36.1297 9.76816ZM35.3123 9.12364C35.1847 8.93397 35.1016 8.68566 35.1016 8.33398H33.1016C33.1016 9.02397 33.2723 9.6741 33.6526 10.2396L35.3123 9.12364ZM35.1016 8.33398C35.1016 7.79665 35.3085 7.33787 35.8301 6.90945L34.5606 5.36399C33.6238 6.13348 33.1016 7.13954 33.1016 8.33398H35.1016ZM35.8267 6.9122C36.35 6.48614 37.0505 6.23828 38.0078 6.23828V4.23828C36.6865 4.23828 35.512 4.58938 34.5639 5.36123L35.8267 6.9122ZM38.0078 6.23828C39.0297 6.23828 39.7553 6.49881 40.2778 6.93424L41.5582 5.39779C40.5963 4.59625 39.3818 4.23828 38.0078 4.23828V6.23828ZM40.2811 6.93698C40.8019 7.36723 41.041 7.87652 41.041 8.53906H43.041C43.041 7.27452 42.5314 6.20178 41.5549 5.39505L40.2811 6.93698ZM42.041 7.53906H40.2246V9.53906H42.041V7.53906ZM41.2246 8.53906C41.2246 7.71254 40.8531 7.01876 40.2358 6.49638L38.9439 8.02315C39.1729 8.21691 39.2246 8.376 39.2246 8.53906H41.2246ZM40.2416 6.50135C39.6149 5.96273 38.8442 5.72266 38.0078 5.72266V7.72266C38.4475 7.72266 38.7315 7.84066 38.9381 8.01819L40.2416 6.50135ZM38.0078 5.72266C37.2163 5.72266 36.4582 5.89417 35.8538 6.36075L37.0759 7.94393C37.2136 7.8376 37.4843 7.72266 38.0078 7.72266V5.72266ZM35.8538 6.36075C35.2415 6.83341 34.9082 7.49816 34.9082 8.27539H36.9082C36.9082 8.12815 36.946 8.04419 37.0759 7.94393L35.8538 6.36075ZM34.9082 8.27539C34.9082 9.02603 35.2327 9.68446 35.8858 10.1034L36.9657 8.42002C36.9426 8.40518 36.9317 8.39458 36.9277 8.39033C36.924 8.38648 36.9234 8.38496 36.9231 8.38446C36.9227 8.38375 36.9195 8.37765 36.9161 8.36239C36.9125 8.34653 36.9082 8.31859 36.9082 8.27539H34.9082ZM35.8858 10.1034C36.3914 10.4278 37.1659 10.6687 38.0718 10.8722L38.5102 8.9208C37.6193 8.72066 37.1502 8.53838 36.9657 8.42002L35.8858 10.1034ZM38.0733 10.8725C38.933 11.0642 39.5799 11.283 40.0411 11.5136L40.9355 9.72471C40.2769 9.39541 39.459 9.1324 38.5087 8.92046L38.0733 10.8725ZM40.0411 11.5136C40.4927 11.7394 40.7532 11.9764 40.8986 12.1926L42.5585 11.0769C42.1699 10.4989 41.6036 10.0588 40.9355 9.72471L40.0411 11.5136ZM40.9093 12.2082C41.0443 12.4011 41.1387 12.6696 41.1387 13.0703H43.1387C43.1387 12.3382 42.9596 11.6497 42.5477 11.0613L40.9093 12.2082ZM41.1387 13.0703C41.1387 13.7 40.9087 14.1642 40.4015 14.549L41.6102 16.1424C42.6135 15.3813 43.1387 14.3287 43.1387 13.0703H41.1387ZM40.4059 14.5457C39.8664 14.9503 39.1146 15.1953 38.0664 15.1953V17.1953C39.427 17.1953 40.6349 16.8739 41.6059 16.1457L40.4059 14.5457ZM38.0664 15.1953C37.3385 15.1953 36.7366 15.0669 36.2382 14.8376L35.4024 16.6546C36.2061 17.0243 37.1016 17.1953 38.0664 17.1953V15.1953ZM36.2382 14.8376C35.7323 14.6049 35.3673 14.298 35.1082 13.9253L33.466 15.0669C33.9492 15.7619 34.6063 16.2884 35.4024 16.6546L36.2382 14.8376ZM35.1161 13.9368C34.8579 13.5541 34.7402 13.1649 34.7402 12.748H32.7402C32.7402 13.5812 32.9872 14.3573 33.4581 15.0554L35.1161 13.9368ZM33.7402 13.748H35.5469V11.748H33.7402V13.748ZM34.5483 12.8017C34.5952 13.6745 34.96 14.4283 35.6462 14.9753L36.8928 13.4114C36.6806 13.2422 36.5636 13.0325 36.5454 12.6944L34.5483 12.8017ZM35.6587 14.9851C36.3344 15.5064 37.1677 15.7207 38.0664 15.7207V13.7207C37.4807 13.7207 37.1161 13.5834 36.8803 13.4016L35.6587 14.9851ZM38.0664 15.7207C38.8736 15.7207 39.6351 15.5603 40.2617 15.1426L39.1523 13.4785C38.9586 13.6076 38.6264 13.7207 38.0664 13.7207V15.7207ZM40.2647 15.1406C40.9298 14.6938 41.332 14.0251 41.332 13.1973H39.332C39.332 13.2939 39.3176 13.3674 39.1493 13.4805L40.2647 15.1406ZM51.416 16V17H52.416V16H51.416ZM49.6094 16H48.6094V17H49.6094V16ZM49.6094 5.43359V4.43359H48.6094V5.43359H49.6094ZM51.416 5.43359H52.416V4.43359H51.416V5.43359ZM49.7266 1.88867L48.9845 1.21839L48.9784 1.22508L48.9725 1.23189L49.7266 1.88867ZM49.7266 3.36328L48.9833 4.03225L48.9893 4.03898L48.9955 4.0456L49.7266 3.36328ZM51.416 15H49.6094V17H51.416V15ZM50.6094 16V5.43359H48.6094V16H50.6094ZM49.6094 6.43359H51.416V4.43359H49.6094V6.43359ZM50.416 5.43359V16H52.416V5.43359H50.416ZM50.4629 2.63086C50.4629 2.58532 50.4695 2.56486 50.4711 2.56035C50.4722 2.55717 50.4735 2.55366 50.4806 2.54545L48.9725 1.23189C48.6227 1.63352 48.4629 2.12108 48.4629 2.63086H50.4629ZM50.4687 2.55896C50.4601 2.56849 50.4494 2.57779 50.438 2.58549C50.4267 2.59308 50.4188 2.59637 50.4171 2.59701C50.4147 2.5979 50.4453 2.58594 50.5273 2.58594V0.585938C49.9808 0.585938 49.4082 0.749242 48.9845 1.21839L50.4687 2.55896ZM50.5273 2.58594C50.6094 2.58594 50.6399 2.5979 50.6376 2.59701C50.6359 2.59637 50.6279 2.59308 50.6167 2.58549C50.6052 2.57779 50.5946 2.56849 50.586 2.55896L52.0702 1.21839C51.6465 0.749242 51.0739 0.585938 50.5273 0.585938V2.58594ZM50.586 2.55896C50.591 2.56451 50.593 2.56769 50.5936 2.56853C50.594 2.56931 50.5944 2.56994 50.5949 2.57129C50.5954 2.57267 50.6016 2.58929 50.6016 2.63086H52.6016C52.6016 2.11105 52.432 1.61888 52.0702 1.21839L50.586 2.55896ZM50.6016 2.63086C50.6016 2.67265 50.5953 2.68676 50.5964 2.68394C50.5967 2.68312 50.5975 2.68125 50.5987 2.67934C50.5999 2.67748 50.5998 2.678 50.5971 2.68096L52.0592 4.0456C52.4316 3.64653 52.6016 3.1505 52.6016 2.63086H50.6016ZM50.5971 2.68096C50.6068 2.67054 50.618 2.66117 50.6293 2.65384C50.6346 2.65037 50.6391 2.64788 50.6425 2.6462C50.6459 2.64453 50.6477 2.64386 50.6476 2.64388C50.6468 2.64418 50.6127 2.65625 50.5273 2.65625V4.65625C51.0642 4.65625 51.6331 4.50215 52.0592 4.0456L50.5971 2.68096ZM50.5273 2.65625C50.442 2.65625 50.4079 2.64418 50.4071 2.64388C50.407 2.64386 50.4088 2.64453 50.4122 2.6462C50.4156 2.64788 50.4201 2.65037 50.4254 2.65384C50.4367 2.66117 50.4479 2.67054 50.4576 2.68096L48.9955 4.0456C49.4216 4.50215 49.9905 4.65625 50.5273 4.65625V2.65625ZM50.4699 2.69432C50.4678 2.69198 50.4678 2.69166 50.4687 2.69315C50.4696 2.69466 50.4699 2.69562 50.4697 2.69497C50.4696 2.69461 50.4629 2.67662 50.4629 2.63086H48.4629C48.4629 3.14028 48.6228 3.63178 48.9833 4.03225L50.4699 2.69432ZM59.9121 12.0645L59.3121 12.8645L59.3201 12.8704L59.3282 12.8763L59.9121 12.0645ZM57.9883 11.3613L57.7788 12.3391L57.7802 12.3394L57.9883 11.3613ZM55.8105 10.6582L55.3547 11.5483L55.359 11.5505L55.8105 10.6582ZM54.6191 9.68164L53.7892 10.2397L53.7959 10.2494L54.6191 9.68164ZM55.332 6.13672L54.7007 5.36123L54.6973 5.36399L55.332 6.13672ZM61.0547 6.16602L60.4145 6.93424L60.4178 6.93698L61.0547 6.16602ZM62.1777 8.53906V9.53906H63.1777V8.53906H62.1777ZM60.3613 8.53906H59.3613V9.53906H60.3613V8.53906ZM59.7266 7.25977L59.0748 8.01821L59.0806 8.02315L59.7266 7.25977ZM58.4277 9.89648L58.2086 10.8722L58.2101 10.8725L58.4277 9.89648ZM61.8652 11.6348L61.0353 12.1926L61.0406 12.2005L61.046 12.2082L61.8652 11.6348ZM61.1426 15.3457L61.7426 16.1457L61.747 16.1424L61.1426 15.3457ZM55.957 15.7461L55.5391 16.6546L55.957 15.7461ZM54.4238 14.4961L53.5948 15.0554L53.6027 15.0669L54.4238 14.4961ZM53.877 12.748V11.748H52.877V12.748H53.877ZM55.6836 12.748L56.6822 12.6944L56.6313 11.748H55.6836V12.748ZM56.4062 14.1934L55.7829 14.9753L55.7892 14.9803L55.7954 14.9851L56.4062 14.1934ZM59.8438 14.3105L60.3985 15.1426L60.4014 15.1406L59.8438 14.3105ZM61.4688 13.1973C61.4688 12.4129 61.1486 11.722 60.496 11.2526L59.3282 12.8763C59.4178 12.9408 59.4688 13.005 59.4688 13.1973H61.4688ZM60.5121 11.2645C59.9626 10.8523 59.1372 10.5834 58.1964 10.3832L57.7802 12.3394C58.6753 12.5299 59.1324 12.7297 59.3121 12.8645L60.5121 11.2645ZM58.1978 10.3835C57.3304 10.1977 56.6963 9.98568 56.2621 9.76594L55.359 11.5505C56.0055 11.8776 56.8232 12.1344 57.7788 12.3391L58.1978 10.3835ZM56.2664 9.76816C55.836 9.54768 55.5844 9.31988 55.4424 9.11391L53.7959 10.2494C54.1747 10.7986 54.7174 11.2219 55.3547 11.5482L56.2664 9.76816ZM55.449 9.12364C55.3214 8.93397 55.2383 8.68566 55.2383 8.33398H53.2383C53.2383 9.02397 53.409 9.6741 53.7893 10.2396L55.449 9.12364ZM55.2383 8.33398C55.2383 7.79665 55.4452 7.33787 55.9668 6.90945L54.6973 5.36399C53.7605 6.13348 53.2383 7.13954 53.2383 8.33398H55.2383ZM55.9634 6.9122C56.4867 6.48614 57.1872 6.23828 58.1445 6.23828V4.23828C56.8232 4.23828 55.6487 4.58938 54.7007 5.36123L55.9634 6.9122ZM58.1445 6.23828C59.1664 6.23828 59.892 6.49881 60.4145 6.93424L61.6949 5.39779C60.733 4.59625 59.5185 4.23828 58.1445 4.23828V6.23828ZM60.4178 6.93698C60.9386 7.36723 61.1777 7.87652 61.1777 8.53906H63.1777C63.1777 7.27452 62.6681 6.20178 61.6916 5.39505L60.4178 6.93698ZM62.1777 7.53906H60.3613V9.53906H62.1777V7.53906ZM61.3613 8.53906C61.3613 7.71254 60.9899 7.01876 60.3725 6.49638L59.0806 8.02315C59.3096 8.21691 59.3613 8.376 59.3613 8.53906H61.3613ZM60.3783 6.50135C59.7516 5.96273 58.9809 5.72266 58.1445 5.72266V7.72266C58.5842 7.72266 58.8682 7.84066 59.0748 8.01819L60.3783 6.50135ZM58.1445 5.72266C57.353 5.72266 56.595 5.89417 55.9905 6.36075L57.2126 7.94393C57.3504 7.8376 57.621 7.72266 58.1445 7.72266V5.72266ZM55.9905 6.36075C55.3782 6.83341 55.0449 7.49816 55.0449 8.27539H57.0449C57.0449 8.12815 57.0827 8.04419 57.2126 7.94393L55.9905 6.36075ZM55.0449 8.27539C55.0449 9.02603 55.3695 9.68446 56.0225 10.1034L57.1025 8.42002C57.0793 8.40518 57.0684 8.39458 57.0644 8.39033C57.0608 8.38648 57.0601 8.38496 57.0598 8.38446C57.0594 8.38375 57.0562 8.37765 57.0528 8.36239C57.0492 8.34653 57.0449 8.31859 57.0449 8.27539H55.0449ZM56.0225 10.1034C56.5282 10.4278 57.3026 10.6687 58.2086 10.8722L58.6469 8.9208C57.756 8.72066 57.287 8.53838 57.1025 8.42002L56.0225 10.1034ZM58.2101 10.8725C59.0697 11.0642 59.7166 11.283 60.1778 11.5136L61.0722 9.72471C60.4136 9.39541 59.5957 9.1324 58.6454 8.92046L58.2101 10.8725ZM60.1778 11.5136C60.6294 11.7394 60.89 11.9764 61.0353 12.1926L62.6952 11.0769C62.3066 10.4989 61.7404 10.0588 61.0722 9.72471L60.1778 11.5136ZM61.046 12.2082C61.181 12.4011 61.2754 12.6696 61.2754 13.0703H63.2754C63.2754 12.3382 63.0963 11.6497 62.6845 11.0613L61.046 12.2082ZM61.2754 13.0703C61.2754 13.7 61.0454 14.1642 60.5382 14.549L61.747 16.1424C62.7502 15.3813 63.2754 14.3287 63.2754 13.0703H61.2754ZM60.5426 14.5457C60.0031 14.9503 59.2514 15.1953 58.2031 15.1953V17.1953C59.5637 17.1953 60.7716 16.8739 61.7426 16.1457L60.5426 14.5457ZM58.2031 15.1953C57.4752 15.1953 56.8733 15.0669 56.3749 14.8376L55.5391 16.6546C56.3428 17.0243 57.2383 17.1953 58.2031 17.1953V15.1953ZM56.3749 14.8376C55.869 14.6049 55.504 14.298 55.2449 13.9253L53.6027 15.0669C54.0859 15.7619 54.743 16.2884 55.5391 16.6546L56.3749 14.8376ZM55.2528 13.9368C54.9946 13.5541 54.877 13.1649 54.877 12.748H52.877C52.877 13.5812 53.1239 14.3573 53.5949 15.0554L55.2528 13.9368ZM53.877 13.748H55.6836V11.748H53.877V13.748ZM54.685 12.8017C54.732 13.6745 55.0967 14.4283 55.7829 14.9753L57.0296 13.4114C56.8174 13.2422 56.7003 13.0325 56.6822 12.6944L54.685 12.8017ZM55.7954 14.9851C56.4712 15.5064 57.3044 15.7207 58.2031 15.7207V13.7207C57.6175 13.7207 57.2528 13.5834 57.0171 13.4016L55.7954 14.9851ZM58.2031 15.7207C59.0103 15.7207 59.7718 15.5603 60.3985 15.1426L59.289 13.4785C59.0954 13.6076 58.7631 13.7207 58.2031 13.7207V15.7207ZM60.4014 15.1406C61.0665 14.6938 61.4688 14.0251 61.4688 13.1973H59.4688C59.4688 13.2939 59.4544 13.3674 59.2861 13.4805L60.4014 15.1406ZM76.1133 16L75.2189 16.4472L75.4952 17H76.1133V16ZM75.8594 14.8867L76.852 14.7657L76.5974 12.6782L75.139 14.1932L75.8594 14.8867ZM70.2832 15.3164L69.6174 16.0626L69.6252 16.0694L70.2832 15.3164ZM70.5371 10.5117L71.1249 11.3207L71.126 11.3199L70.5371 10.5117ZM75.8301 9.59375V10.5938H76.8301V9.59375H75.8301ZM75.2637 7.25977L74.5565 7.9669L74.5627 7.97299L75.2637 7.25977ZM71.3184 8.36328V9.36328H72.3184V8.36328H71.3184ZM69.502 8.36328H68.502V9.36328H69.502V8.36328ZM70.0586 6.83984L69.2636 6.23317L69.2624 6.23476L70.0586 6.83984ZM71.582 5.66797L71.1759 4.75415L71.1724 4.7557L71.582 5.66797ZM76.5625 6.15625L75.899 6.90445L75.903 6.90795L76.5625 6.15625ZM77.6367 8.66602H78.6367V8.65382L78.6364 8.64163L77.6367 8.66602ZM78.0078 15.8438H79.0078V15.6371L78.9259 15.4473L78.0078 15.8438ZM78.0078 16V17H79.0078V16H78.0078ZM75.8301 13.041L76.7294 13.4782L76.8301 13.2712V13.041H75.8301ZM75.8301 10.873H76.8301V9.87305H75.8301V10.873ZM77.0077 15.5528C77.0094 15.5561 77.0023 15.5422 76.9896 15.5034C76.9774 15.4658 76.9627 15.4133 76.9466 15.3431C76.9143 15.2015 76.882 15.0112 76.852 14.7657L74.8667 15.0078C74.9323 15.5454 75.0304 16.0703 75.2189 16.4472L77.0077 15.5528ZM75.139 14.1932C74.4793 14.8784 73.7334 15.1953 72.8516 15.1953V17.1953C74.3004 17.1953 75.5597 16.6399 76.5798 15.5803L75.139 14.1932ZM72.8516 15.1953C72.0084 15.1953 71.3993 14.9637 70.9412 14.5634L69.6252 16.0694C70.5083 16.841 71.6113 17.1953 72.8516 17.1953V15.1953ZM70.9489 14.5702C70.5016 14.1711 70.2871 13.6958 70.2871 13.0703H68.2871C68.2871 14.2548 68.7367 15.2768 69.6175 16.0626L70.9489 14.5702ZM70.2871 13.0703C70.2871 12.2646 70.5705 11.7235 71.1249 11.3207L69.9493 9.70271C68.837 10.5109 68.2871 11.6755 68.2871 13.0703H70.2871ZM71.126 11.3199C71.7324 10.8781 72.6738 10.5938 74.0723 10.5938V8.59375C72.4368 8.59375 71.0215 8.9214 69.9482 9.70352L71.126 11.3199ZM74.0723 10.5938H75.8301V8.59375H74.0723V10.5938ZM76.8301 9.59375V8.76367H74.8301V9.59375H76.8301ZM76.8301 8.76367C76.8301 7.91954 76.5698 7.14134 75.9646 6.54654L74.5627 7.97299C74.7127 8.12038 74.8301 8.34478 74.8301 8.76367H76.8301ZM75.9708 6.55266C75.344 5.92584 74.4924 5.69336 73.5938 5.69336V7.69336C74.1665 7.69336 74.4282 7.83848 74.5566 7.96687L75.9708 6.55266ZM73.5938 5.69336C72.7746 5.69336 72.0137 5.90324 71.3746 6.38021L72.5707 7.98307C72.804 7.809 73.1238 7.69336 73.5938 7.69336V5.69336ZM71.3746 6.38021C70.7363 6.85657 70.3184 7.52701 70.3184 8.36328H72.3184C72.3184 8.27508 72.3367 8.15776 72.5707 7.98307L71.3746 6.38021ZM71.3184 7.36328H69.502V9.36328H71.3184V7.36328ZM70.502 8.36328C70.502 8.08885 70.5935 7.7887 70.8548 7.44493L69.2624 6.23476C68.7815 6.86755 68.502 7.58303 68.502 8.36328H70.502ZM70.8535 7.44652C71.1182 7.09976 71.4864 6.80706 71.9916 6.58024L71.1724 4.7557C70.4016 5.10179 69.7542 5.59034 69.2636 6.23317L70.8535 7.44652ZM71.9882 6.58178C72.4938 6.35706 73.0602 6.23828 73.7012 6.23828V4.23828C72.8056 4.23828 71.9593 4.40596 71.1759 4.75416L71.9882 6.58178ZM73.7012 6.23828C74.7538 6.23828 75.4438 6.50073 75.899 6.90444L77.226 5.40806C76.301 4.58781 75.0835 4.23828 73.7012 4.23828V6.23828ZM75.903 6.90795C76.3482 7.29859 76.6166 7.85205 76.637 8.6904L78.6364 8.64163C78.6048 7.34457 78.157 6.22485 77.222 5.40455L75.903 6.90795ZM76.6367 8.66602V13.5293H78.6367V8.66602H76.6367ZM76.6367 13.5293C76.6367 14.5681 76.7667 15.4921 77.0898 16.2402L78.9259 15.4473C78.7541 15.0495 78.6367 14.4306 78.6367 13.5293H76.6367ZM77.0078 15.8438V16H79.0078V15.8438H77.0078ZM78.0078 15H76.1133V17H78.0078V15ZM73.1152 15.623C73.8634 15.623 74.5721 15.4272 75.2263 15.0498L74.2268 13.3174C73.8654 13.5259 73.4999 13.623 73.1152 13.623V15.623ZM75.2263 15.0498C75.8848 14.6699 76.4036 14.1486 76.7294 13.4782L74.9307 12.6038C74.8009 12.8709 74.584 13.1114 74.2268 13.3174L75.2263 15.0498ZM76.8301 13.041V10.873H74.8301V13.041H76.8301ZM75.8301 9.87305H74.4141V11.873H75.8301V9.87305ZM74.4141 9.87305C73.2425 9.87305 72.1998 10.0387 71.4187 10.4958C70.5549 11.0014 70.0938 11.818 70.0938 12.8164H72.0938C72.0938 12.5193 72.186 12.3642 72.429 12.2219C72.7547 12.0313 73.3721 11.873 74.4141 11.873V9.87305ZM70.0938 12.8164C70.0938 13.6293 70.3781 14.3705 71.0148 14.9084L72.3055 13.3806C72.187 13.2805 72.0938 13.1363 72.0938 12.8164H70.0938ZM71.0148 14.9084C71.6071 15.4088 72.3355 15.623 73.1152 15.623V13.623C72.71 13.623 72.4684 13.5183 72.3055 13.3806L71.0148 14.9084ZM92.1582 12.6699V11.6699H91.2431L91.1621 12.5814L92.1582 12.6699ZM93.8672 12.6699L94.8657 12.7236L94.9224 11.6699H93.8672V12.6699ZM91.6992 15.707L91.2484 14.8144L91.2447 14.8163L91.6992 15.707ZM86.2305 14.7598L85.4791 15.4197L85.4839 15.4251L86.2305 14.7598ZM87.1484 5.90234L86.6191 5.0539L86.6156 5.05611L87.1484 5.90234ZM92.6074 6.30273L91.9351 7.04296L91.9381 7.04572L92.6074 6.30273ZM93.8672 9.06641V10.0664H94.9142L94.8661 9.02048L93.8672 9.06641ZM92.1582 9.06641L91.1611 9.14238L91.2315 10.0664H92.1582V9.06641ZM91.377 7.38672L90.6853 8.10892L90.6905 8.11389L90.6957 8.11879L91.377 7.38672ZM87.5195 7.71875L86.7252 7.1113L86.7243 7.11247L87.5195 7.71875ZM89.668 15.7207C90.5321 15.7207 91.3199 15.4526 91.9872 14.9115L90.7276 13.358C90.4314 13.5982 90.0929 13.7207 89.668 13.7207V15.7207ZM91.9872 14.9115C92.6664 14.3608 93.0768 13.6299 93.1543 12.7585L91.1621 12.5814C91.1354 12.8819 91.012 13.1274 90.7276 13.358L91.9872 14.9115ZM92.1582 13.6699H93.8672V11.6699H92.1582V13.6699ZM92.8686 12.6162C92.8472 13.0157 92.7116 13.414 92.4239 13.8237L94.0605 14.9732C94.541 14.2892 94.8221 13.5351 94.8657 12.7236L92.8686 12.6162ZM92.4239 13.8237C92.1418 14.2253 91.7583 14.5569 91.2484 14.8144L92.15 16.5996C92.9292 16.2061 93.5744 15.6653 94.0605 14.9732L92.4239 13.8237ZM91.2447 14.8163C90.7474 15.07 90.2261 15.1953 89.668 15.1953V17.1953C90.5421 17.1953 91.375 16.9951 92.1537 16.5978L91.2447 14.8163ZM89.668 15.1953C88.4755 15.1953 87.6158 14.8112 86.977 14.0945L85.4839 15.4251C86.5509 16.6224 87.9828 17.1953 89.668 17.1953V15.1953ZM86.9818 14.0998C86.3388 13.3678 85.9609 12.3126 85.9609 10.8145H83.9609C83.9609 12.6496 84.4294 14.2246 85.4792 15.4197L86.9818 14.0998ZM85.9609 10.8145V10.5117H83.9609V10.8145H85.9609ZM85.9609 10.5117C85.9609 9.60678 86.1265 8.84154 86.4318 8.19408L84.6229 7.34107C84.173 8.29518 83.9609 9.35936 83.9609 10.5117H85.9609ZM86.4318 8.19408C86.7337 7.55396 87.1502 7.08293 87.6813 6.74858L86.6156 5.05611C85.7404 5.60718 85.0762 6.37963 84.6229 7.34107L86.4318 8.19408ZM87.6777 6.75078C88.2056 6.42144 88.8528 6.23828 89.6582 6.23828V4.23828C88.5366 4.23828 87.5105 4.49783 86.6191 5.05391L87.6777 6.75078ZM89.6582 6.23828C90.6273 6.23828 91.3608 6.52132 91.9351 7.04295L93.2798 5.56252C92.2916 4.66488 91.0589 4.23828 89.6582 4.23828V6.23828ZM91.9381 7.04572C92.5124 7.56306 92.8275 8.22599 92.8682 9.11233L94.8661 9.02048C94.8027 7.6412 94.278 6.46168 93.2767 5.55975L91.9381 7.04572ZM93.8672 8.06641H92.1582V10.0664H93.8672V8.06641ZM93.1553 8.99044C93.0856 8.07559 92.7247 7.27487 92.0582 6.65465L90.6957 8.11879C90.9667 8.37096 91.1266 8.69003 91.1611 9.14238L93.1553 8.99044ZM92.0686 6.66452C91.4068 6.03062 90.5802 5.72266 89.6582 5.72266V7.72266C90.1033 7.72266 90.4227 7.85741 90.6853 8.10892L92.0686 6.66452ZM89.6582 5.72266C88.4639 5.72266 87.4426 6.17317 86.7252 7.1113L88.3139 8.3262C88.6121 7.9362 89.0166 7.72266 89.6582 7.72266V5.72266ZM86.7243 7.11247C86.0376 8.01324 85.7676 9.21745 85.7676 10.5801H87.7676C87.7676 9.44271 87.9989 8.73936 88.3148 8.32503L86.7243 7.11247ZM85.7676 10.5801V10.9219H87.7676V10.5801H85.7676ZM85.7676 10.9219C85.7676 12.2591 86.0405 13.4437 86.7243 14.3407L88.3148 13.1281C87.996 12.7099 87.7676 12.0195 87.7676 10.9219H85.7676ZM86.7243 14.3407C87.4404 15.28 88.4699 15.7207 89.668 15.7207V13.7207C89.0041 13.7207 88.6013 13.5039 88.3148 13.1281L86.7243 14.3407ZM96.0254 7.82617L95.1295 7.38177L95.1268 7.38747L96.0254 7.82617ZM97.7246 5.91211L97.2001 5.06071L97.1967 5.06282L97.7246 5.91211ZM103.701 6.73242L102.954 7.39679L102.956 7.3995L103.701 6.73242ZM104.443 13.6074L103.543 13.1717L103.542 13.1747L104.443 13.6074ZM102.754 15.5117L102.227 14.6616L102.224 14.6637L102.754 15.5117ZM96.748 14.7012L96.0006 15.3655L96.0031 15.3683L96.748 14.7012ZM98.0469 13.6562L97.2513 14.2621L97.2548 14.2667L98.0469 13.6562ZM102.422 13.6465L103.22 14.2488L103.223 14.2453L102.422 13.6465ZM102.402 7.80664L101.605 8.41011L101.611 8.41809L102.402 7.80664ZM96.4199 10.6191C96.4199 9.71687 96.595 8.93884 96.924 8.26487L95.1268 7.38747C94.6485 8.36715 94.4199 9.4511 94.4199 10.6191H96.4199ZM96.9212 8.27056C97.256 7.59564 97.7011 7.10419 98.2525 6.76139L97.1967 5.06282C96.3028 5.61847 95.6151 6.40306 95.1296 7.38178L96.9212 8.27056ZM98.2491 6.76351C98.8069 6.41985 99.4524 6.23828 100.215 6.23828V4.23828C99.1153 4.23828 98.1006 4.50593 97.2001 5.06071L98.2491 6.76351ZM100.215 6.23828C101.394 6.23828 102.274 6.63259 102.954 7.39679L104.449 6.06806C103.357 4.84006 101.914 4.23828 100.215 4.23828V6.23828ZM102.956 7.3995C103.647 8.17148 104.039 9.23878 104.039 10.707H106.039C106.039 8.86799 105.539 7.28555 104.446 6.06534L102.956 7.3995ZM104.039 10.707V10.834H106.039V10.707H104.039ZM104.039 10.834C104.039 11.7312 103.867 12.5038 103.543 13.1717L105.343 14.0432C105.814 13.0705 106.039 11.994 106.039 10.834H104.039ZM103.542 13.1747C103.23 13.8242 102.794 14.3108 102.227 14.6616L103.281 16.3618C104.186 15.8011 104.875 15.0182 105.345 14.0402L103.542 13.1747ZM102.224 14.6637C101.67 15.0098 101.018 15.1953 100.234 15.1953V17.1953C101.352 17.1953 102.379 16.9251 103.284 16.3597L102.224 14.6637ZM100.234 15.1953C99.0636 15.1953 98.1806 14.8019 97.493 14.0341L96.0031 15.3683C97.0994 16.5926 98.5405 17.1953 100.234 17.1953V15.1953ZM97.4955 14.0368C96.8081 13.2635 96.4199 12.2008 96.4199 10.7461H94.4199C94.4199 12.5726 94.9172 14.1466 96.0006 15.3655L97.4955 14.0368ZM96.4199 10.7461V10.6191H94.4199V10.7461H96.4199ZM96.2363 10.834C96.2363 12.156 96.542 13.3306 97.2513 14.2621L98.8425 13.0504C98.471 12.5626 98.2363 11.8557 98.2363 10.834H96.2363ZM97.2548 14.2667C97.9948 15.2269 99.0191 15.7207 100.234 15.7207V13.7207C99.6268 13.7207 99.1927 13.5048 98.839 13.0458L97.2548 14.2667ZM100.234 15.7207C101.458 15.7207 102.486 15.2222 103.22 14.2488L101.624 13.0442C101.277 13.5031 100.847 13.7207 100.234 13.7207V15.7207ZM103.223 14.2453C103.938 13.2889 104.232 12.0397 104.232 10.6191H102.232C102.232 11.7897 101.987 12.5587 101.621 13.0476L103.223 14.2453ZM104.232 10.6191C104.232 9.30171 103.916 8.13033 103.194 7.19519L101.611 8.41809C101.995 8.91524 102.232 9.61886 102.232 10.6191H104.232ZM103.2 7.2032C102.463 6.22907 101.437 5.72266 100.215 5.72266V7.72266C100.815 7.72266 101.248 7.93889 101.605 8.41008L103.2 7.2032ZM100.215 5.72266C99.0111 5.72266 97.9998 6.22268 97.2646 7.1767L98.8487 8.39752C99.2073 7.93227 99.6347 7.72266 100.215 7.72266V5.72266ZM97.2646 7.1767C96.5322 8.12708 96.2363 9.39224 96.2363 10.834H98.2363C98.2363 9.6325 98.4874 8.86641 98.8487 8.39752L97.2646 7.1767ZM107.432 7.82617L106.536 7.38177L106.533 7.38747L107.432 7.82617ZM109.131 5.91211L108.606 5.06071L108.603 5.06282L109.131 5.91211ZM115.107 6.73242L114.36 7.39679L114.362 7.3995L115.107 6.73242ZM115.85 13.6074L114.95 13.1717L114.948 13.1747L115.85 13.6074ZM114.16 15.5117L113.634 14.6616L113.63 14.6637L114.16 15.5117ZM108.154 14.7012L107.407 15.3655L107.409 15.3683L108.154 14.7012ZM109.453 13.6562L108.658 14.2621L108.661 14.2667L109.453 13.6562ZM113.828 13.6465L114.626 14.2488L114.629 14.2453L113.828 13.6465ZM113.809 7.80664L113.011 8.41011L113.017 8.41809L113.809 7.80664ZM107.826 10.6191C107.826 9.71687 108.001 8.93884 108.33 8.26487L106.533 7.38747C106.055 8.36715 105.826 9.4511 105.826 10.6191H107.826ZM108.327 8.27056C108.662 7.59564 109.107 7.10419 109.659 6.76139L108.603 5.06282C107.709 5.61847 107.021 6.40306 106.536 7.38178L108.327 8.27056ZM109.655 6.76351C110.213 6.41985 110.859 6.23828 111.621 6.23828V4.23828C110.522 4.23828 109.507 4.50593 108.606 5.06071L109.655 6.76351ZM111.621 6.23828C112.8 6.23828 113.681 6.63259 114.36 7.39679L115.855 6.06806C114.763 4.84006 113.32 4.23828 111.621 4.23828V6.23828ZM114.362 7.3995C115.054 8.17148 115.445 9.23878 115.445 10.707H117.445C117.445 8.86799 116.945 7.28555 115.852 6.06534L114.362 7.3995ZM115.445 10.707V10.834H117.445V10.707H115.445ZM115.445 10.834C115.445 11.7312 115.273 12.5038 114.95 13.1717L116.75 14.0432C117.221 13.0705 117.445 11.994 117.445 10.834H115.445ZM114.948 13.1747C114.636 13.8242 114.2 14.3108 113.634 14.6616L114.687 16.3618C115.592 15.8011 116.282 15.0182 116.751 14.0402L114.948 13.1747ZM113.63 14.6637C113.076 15.0098 112.424 15.1953 111.641 15.1953V17.1953C112.758 17.1953 113.786 16.9251 114.69 16.3597L113.63 14.6637ZM111.641 15.1953C110.47 15.1953 109.587 14.8019 108.899 14.0341L107.409 15.3683C108.506 16.5926 109.947 17.1953 111.641 17.1953V15.1953ZM108.902 14.0368C108.214 13.2635 107.826 12.2008 107.826 10.7461H105.826C105.826 12.5726 106.323 14.1466 107.407 15.3655L108.902 14.0368ZM107.826 10.7461V10.6191H105.826V10.7461H107.826ZM107.643 10.834C107.643 12.156 107.948 13.3306 108.658 14.2621L110.249 13.0504C109.877 12.5626 109.643 11.8557 109.643 10.834H107.643ZM108.661 14.2667C109.401 15.2269 110.425 15.7207 111.641 15.7207V13.7207C111.033 13.7207 110.599 13.5048 110.245 13.0458L108.661 14.2667ZM111.641 15.7207C112.864 15.7207 113.892 15.2222 114.626 14.2488L113.03 13.0442C112.684 13.5031 112.253 13.7207 111.641 13.7207V15.7207ZM114.629 14.2453C115.344 13.2889 115.639 12.0397 115.639 10.6191H113.639C113.639 11.7897 113.393 12.5587 113.027 13.0476L114.629 14.2453ZM115.639 10.6191C115.639 9.30171 115.322 8.13033 114.6 7.19519L113.017 8.41809C113.401 8.91524 113.639 9.61886 113.639 10.6191H115.639ZM114.606 7.2032C113.869 6.22907 112.844 5.72266 111.621 5.72266V7.72266C112.221 7.72266 112.655 7.93889 113.011 8.41008L114.606 7.2032ZM111.621 5.72266C110.417 5.72266 109.406 6.22268 108.671 7.1767L110.255 8.39752C110.614 7.93227 111.041 7.72266 111.621 7.72266V5.72266ZM108.671 7.1767C107.938 8.12708 107.643 9.39224 107.643 10.834H109.643C109.643 9.6325 109.894 8.86641 110.255 8.39752L108.671 7.1767ZM120.674 16V17H121.674V16H120.674ZM118.867 16H117.867V17H118.867V16ZM118.867 1V0H117.867V1H118.867ZM120.674 1H121.674V0H120.674V1ZM120.674 15H118.867V17H120.674V15ZM119.867 16V1H117.867V16H119.867ZM118.867 2H120.674V0H118.867V2ZM119.674 1V16H121.674V1H119.674ZM136.367 14.7305L137.163 15.3356L137.165 15.333L136.367 14.7305ZM130.283 14.7793L131.075 14.168L129.474 12.0956L129.286 14.7075L130.283 14.7793ZM130.195 16V17H131.126L131.193 16.0718L130.195 16ZM128.535 16H127.535V17H128.535V16ZM128.535 1V0H127.535V1H128.535ZM130.342 1H131.342V0H130.342V1ZM130.342 6.5957H129.342V9.43059L131.12 7.22313L130.342 6.5957ZM136.377 6.69336L135.578 7.29422L135.58 7.29763L136.377 6.69336ZM130.342 8.43164L129.437 8.00584L129.342 8.2081V8.43164H130.342ZM130.342 13.002H129.342V13.238L129.447 13.4492L130.342 13.002ZM136.48 10.834C136.48 12.2987 136.145 13.3655 135.569 14.1279L137.165 15.333C138.074 14.1292 138.48 12.5985 138.48 10.834H136.48ZM135.571 14.1254C135.022 14.8476 134.323 15.1953 133.379 15.1953V17.1953C134.934 17.1953 136.228 16.5665 137.163 15.3356L135.571 14.1254ZM133.379 15.1953C132.312 15.1953 131.59 14.8354 131.075 14.168L129.492 15.3906C130.435 16.6112 131.777 17.1953 133.379 17.1953V15.1953ZM129.286 14.7075L129.198 15.9282L131.193 16.0718L131.281 14.8511L129.286 14.7075ZM130.195 15H128.535V17H130.195V15ZM129.535 16V1H127.535V16H129.535ZM128.535 2H130.342V0H128.535V2ZM129.342 1V6.5957H131.342V1H129.342ZM131.12 7.22313C131.639 6.58022 132.344 6.23828 133.359 6.23828V4.23828C131.81 4.23828 130.503 4.80129 129.563 5.96828L131.12 7.22313ZM133.359 6.23828C134.348 6.23828 135.05 6.59168 135.578 7.29422L137.176 6.0925C136.246 4.85493 134.935 4.23828 133.359 4.23828V6.23828ZM135.58 7.29763C136.142 8.03796 136.48 9.12733 136.48 10.6777H138.48C138.48 8.85574 138.084 7.28886 137.174 6.08909L135.58 7.29763ZM136.48 10.6777V10.834H138.48V10.6777H136.48ZM136.674 10.6289C136.674 9.2886 136.418 8.10374 135.777 7.19911L134.145 8.35558C134.454 8.79209 134.674 9.50828 134.674 10.6289H136.674ZM135.777 7.19911C135.096 6.23866 134.094 5.77148 132.91 5.77148V7.77148C133.51 7.77148 133.875 7.97488 134.145 8.35558L135.777 7.19911ZM132.91 5.77148C132.155 5.77148 131.447 5.9488 130.832 6.3467C130.218 6.74353 129.761 7.31741 129.437 8.00584L131.247 8.85744C131.443 8.4391 131.675 8.1829 131.917 8.02635C132.158 7.87086 132.474 7.77148 132.91 7.77148V5.77148ZM129.342 8.43164V13.002H131.342V8.43164H129.342ZM129.447 13.4492C129.788 14.1301 130.252 14.6965 130.864 15.0888C131.478 15.483 132.18 15.6621 132.93 15.6621V13.6621C132.507 13.6621 132.192 13.5645 131.944 13.4054C131.693 13.2443 131.449 12.9806 131.236 12.5547L129.447 13.4492ZM132.93 15.6621C134.099 15.6621 135.083 15.1864 135.763 14.2397L134.139 13.0728C133.856 13.4672 133.492 13.6621 132.93 13.6621V15.6621ZM135.763 14.2397C136.423 13.3219 136.674 12.065 136.674 10.6289H134.674C134.674 11.8881 134.443 12.6494 134.139 13.0728L135.763 14.2397ZM139.893 7.82617L138.997 7.38177L138.994 7.38747L139.893 7.82617ZM141.592 5.91211L141.067 5.06071L141.064 5.06282L141.592 5.91211ZM147.568 6.73242L146.821 7.39679L146.823 7.3995L147.568 6.73242ZM148.311 13.6074L147.41 13.1717L147.409 13.1747L148.311 13.6074ZM146.621 15.5117L146.094 14.6616L146.091 14.6637L146.621 15.5117ZM140.615 14.7012L139.868 15.3655L139.87 15.3683L140.615 14.7012ZM141.914 13.6562L141.118 14.2621L141.122 14.2667L141.914 13.6562ZM146.289 13.6465L147.087 14.2488L147.09 14.2453L146.289 13.6465ZM146.27 7.80664L145.472 8.41011L145.478 8.41809L146.27 7.80664ZM140.287 10.6191C140.287 9.71687 140.462 8.93884 140.791 8.26487L138.994 7.38747C138.516 8.36715 138.287 9.4511 138.287 10.6191H140.287ZM140.788 8.27056C141.123 7.59564 141.568 7.10419 142.12 6.76139L141.064 5.06282C140.17 5.61847 139.482 6.40306 138.997 7.38178L140.788 8.27056ZM142.116 6.76351C142.674 6.41985 143.32 6.23828 144.082 6.23828V4.23828C142.983 4.23828 141.968 4.50593 141.067 5.06071L142.116 6.76351ZM144.082 6.23828C145.261 6.23828 146.142 6.63259 146.821 7.39679L148.316 6.06806C147.224 4.84006 145.781 4.23828 144.082 4.23828V6.23828ZM146.823 7.3995C147.515 8.17148 147.906 9.23878 147.906 10.707H149.906C149.906 8.86799 149.406 7.28555 148.313 6.06534L146.823 7.3995ZM147.906 10.707V10.834H149.906V10.707H147.906ZM147.906 10.834C147.906 11.7312 147.734 12.5038 147.41 13.1717L149.211 14.0432C149.682 13.0705 149.906 11.994 149.906 10.834H147.906ZM147.409 13.1747C147.097 13.8242 146.661 14.3108 146.094 14.6616L147.148 16.3618C148.053 15.8011 148.743 15.0182 149.212 14.0402L147.409 13.1747ZM146.091 14.6637C145.537 15.0098 144.885 15.1953 144.102 15.1953V17.1953C145.219 17.1953 146.247 16.9251 147.151 16.3597L146.091 14.6637ZM144.102 15.1953C142.931 15.1953 142.048 14.8019 141.36 14.0341L139.87 15.3683C140.967 16.5926 142.408 17.1953 144.102 17.1953V15.1953ZM141.363 14.0368C140.675 13.2635 140.287 12.2008 140.287 10.7461H138.287C138.287 12.5726 138.784 14.1466 139.868 15.3655L141.363 14.0368ZM140.287 10.7461V10.6191H138.287V10.7461H140.287ZM140.104 10.834C140.104 12.156 140.409 13.3306 141.118 14.2621L142.71 13.0504C142.338 12.5626 142.104 11.8557 142.104 10.834H140.104ZM141.122 14.2667C141.862 15.2269 142.886 15.7207 144.102 15.7207V13.7207C143.494 13.7207 143.06 13.5048 142.706 13.0458L141.122 14.2667ZM144.102 15.7207C145.325 15.7207 146.353 15.2222 147.087 14.2488L145.491 13.0442C145.145 13.5031 144.714 13.7207 144.102 13.7207V15.7207ZM147.09 14.2453C147.805 13.2889 148.1 12.0397 148.1 10.6191H146.1C146.1 11.7897 145.854 12.5587 145.488 13.0476L147.09 14.2453ZM148.1 10.6191C148.1 9.30171 147.783 8.13033 147.061 7.19519L145.478 8.41809C145.862 8.91524 146.1 9.61886 146.1 10.6191H148.1ZM147.067 7.2032C146.33 6.22907 145.305 5.72266 144.082 5.72266V7.72266C144.682 7.72266 145.116 7.93889 145.472 8.41008L147.067 7.2032ZM144.082 5.72266C142.878 5.72266 141.867 6.22268 141.132 7.1767L142.716 8.39752C143.074 7.93227 143.502 7.72266 144.082 7.72266V5.72266ZM141.132 7.1767C140.399 8.12708 140.104 9.39224 140.104 10.834H142.104C142.104 9.6325 142.355 8.86641 142.716 8.39752L141.132 7.1767ZM154.502 9.29102L153.644 9.80551L154.497 11.2257L155.357 9.81028L154.502 9.29102ZM156.846 5.43359V4.43359H156.283L155.991 4.91433L156.846 5.43359ZM158.955 5.43359L159.789 5.98541L160.816 4.43359H158.955V5.43359ZM155.498 10.6582L154.664 10.1064L154.297 10.6605L154.666 11.2133L155.498 10.6582ZM159.062 16V17H160.932L159.894 15.4449L159.062 16ZM156.973 16L156.122 16.5253L156.415 17H156.973V16ZM154.531 12.0449L155.382 11.5197L154.531 10.1411L153.68 11.5197L154.531 12.0449ZM152.09 16V17H152.648L152.941 16.5253L152.09 16ZM149.99 16L149.158 15.4449L148.121 17H149.99V16ZM153.555 10.6582L154.387 11.2133L154.755 10.6605L154.389 10.1064L153.555 10.6582ZM150.098 5.43359V4.43359H148.237L149.264 5.98541L150.098 5.43359ZM152.188 5.43359L153.045 4.9191L152.754 4.43359H152.188V5.43359ZM155.357 9.81028L157.7 5.95285L155.991 4.91433L153.647 8.77176L155.357 9.81028ZM156.846 6.43359H158.955V4.43359H156.846V6.43359ZM158.121 4.88177L154.664 10.1064L156.332 11.21L159.789 5.98541L158.121 4.88177ZM154.666 11.2133L158.231 16.5551L159.894 15.4449L156.33 10.1032L154.666 11.2133ZM159.062 15H156.973V17H159.062V15ZM157.824 15.4747L155.382 11.5197L153.68 12.5702L156.122 16.5253L157.824 15.4747ZM153.68 11.5197L151.239 15.4747L152.941 16.5253L155.382 12.5702L153.68 11.5197ZM152.09 15H149.99V17H152.09V15ZM150.822 16.5551L154.387 11.2133L152.723 10.1032L149.158 15.4449L150.822 16.5551ZM154.389 10.1064L150.932 4.88177L149.264 5.98541L152.721 11.21L154.389 10.1064ZM150.098 6.43359H152.188V4.43359H150.098V6.43359ZM151.33 5.94809L153.644 9.80551L155.359 8.77652L153.045 4.9191L151.33 5.94809Z" fill="url(#paint1_linear)"/>
</g>
<defs>
<filter id="filter0_d" x="0.478516" y="0" width="164.453" height="25.1953" filterUnits="userSpaceOnUse" color-interpolation-filters="sRGB">
<feFlood flood-opacity="0" result="BackgroundImageFix"/>
<feColorMatrix in="SourceAlpha" type="matrix" values="0 0 0 0 0 0 0 0 0 0 0 0 0 0 0 0 0 0 127 0"/>
<feOffset dy="4"/>
<feGaussianBlur stdDeviation="2"/>
<feColorMatrix type="matrix" values="0 0 0 0 0 0 0 0 0 0 0 0 0 0 0 0 0 0 0.25 0"/>
<feBlend mode="normal" in2="BackgroundImageFix" result="effect1_dropShadow"/>
<feBlend mode="normal" in="SourceGraphic" in2="effect1_dropShadow" result="shape"/>
</filter>
<linearGradient id="paint0_linear" x1="88" y1="-2" x2="88" y2="26" gradientUnits="userSpaceOnUse">
<stop stop-color="white"/>
<stop offset="1" stop-color="white" stop-opacity="0"/>
</linearGradient>
<linearGradient id="paint1_linear" x1="88" y1="-2" x2="88" y2="26" gradientUnits="userSpaceOnUse">
<stop stop-color="white"/>
<stop offset="1" stop-color="white" stop-opacity="0"/>
</linearGradient>
</defs>
</svg>
